<svg id="logo" width="95" height="24" viewBox="0 0 95 24" fill="currentColor" xmlns="http://www.w3.org/2000/svg">
<path d="M34.647 6.92307C34.7246 7.11135 34.7633 7.54884 34.7633 8.23554V15.0166C34.7633 15.8855 34.7276 16.4353 34.6559 16.6664C34.5842 16.8972 34.4201 17.0127 34.1635 17.0127C33.9127 17.0127 33.7516 16.9125 33.68 16.7119C33.6143 16.5113 33.5815 15.9828 33.5815 15.126V8.23554C33.5815 7.47599 33.6322 7.02034 33.7337 6.86839C33.8412 6.71038 33.9933 6.63148 34.1903 6.63148C34.4231 6.63148 34.5753 6.72855 34.647 6.92307Z"/>
<path d="M7.04935 7.74337C7.24035 10.1982 7.43135 12.261 7.62235 13.9321H6.33303C6.42858 12.6257 6.66725 10.5628 7.04935 7.74337Z"/>
<path fill-rule="evenodd" clip-rule="evenodd" d="M39.0886 24C41.4454 20.6095 42.8302 16.4691 42.8302 11.9997C42.8302 7.53048 41.4455 3.39054 39.089 0C39.089 0.000976539 0 0 0 0L0.000383727 24H39.0886ZM38.4253 16.2379C38.497 15.6182 38.5328 14.567 38.5328 13.0844V10.5597C38.5328 9.0406 38.497 7.97734 38.4253 7.36974C38.3538 6.76214 38.1299 6.20004 37.7538 5.68345C37.3778 5.16706 36.8794 4.78113 36.2586 4.52606C35.6438 4.26474 34.9484 4.13408 34.1724 4.13408C33.3547 4.13408 32.6384 4.27079 32.0235 4.54422C31.4087 4.81766 30.9193 5.20964 30.5551 5.71998C30.197 6.23032 29.9821 6.79554 29.9104 7.41525C29.8448 8.02891 29.812 9.07712 29.812 10.5597V13.0844C29.812 14.6034 29.8478 15.6668 29.9195 16.2744C29.991 16.882 30.2149 17.4441 30.591 17.9605C30.967 18.4771 31.4624 18.8659 32.0773 19.1273C32.698 19.3823 33.3964 19.5101 34.1724 19.5101C34.9901 19.5101 35.7064 19.3734 36.3213 19.0999C36.9361 18.8265 37.4226 18.4345 37.7807 17.9242C38.1448 17.4136 38.3597 16.8517 38.4253 16.2379ZM11.7769 19.2001L9.61898 4.44403H4.16622L2.25017 19.2001H6.15392L6.37783 16.5478H7.72979L7.91782 19.2001H11.7769ZM20.6626 14.3057V4.44403H16.8932V15.3174C16.8932 16.0525 16.8574 16.5205 16.7857 16.7211C16.7201 16.9154 16.5679 17.0127 16.3291 17.0127C16.1202 17.0127 15.9799 16.9246 15.9083 16.7484C15.8426 16.566 15.8098 16.1529 15.8098 15.5088V4.44403H12.0403V13.1755C12.0403 14.8405 12.0701 15.9342 12.1299 16.4566C12.1896 16.9732 12.3835 17.4654 12.7118 17.9332C13.0402 18.4011 13.5356 18.7808 14.1982 19.0726C14.8607 19.3642 15.6248 19.5101 16.4903 19.5101C17.2722 19.5101 17.9497 19.3884 18.5228 19.1454C19.1017 18.8962 19.5674 18.5347 19.9195 18.0609C20.2717 17.5808 20.4836 17.116 20.5552 16.6664C20.6269 16.2105 20.6626 15.4236 20.6626 14.3057ZM29.3873 4.44403V7.39709H27.149V19.2001H23.3794V7.39709H21.15V4.44403H29.3873Z"/>
<path d="M44.4018 4.44397H48.1981C49.2248 4.44397 50.0127 4.526 50.5619 4.69005C51.117 4.85411 51.5319 5.09109 51.8064 5.40097C52.087 5.71086 52.275 6.08759 52.3705 6.53116C52.472 6.96864 52.5227 7.64918 52.5227 8.57277V9.8579C52.5227 10.7997 52.4272 11.4863 52.2362 11.9177C52.0452 12.3492 51.693 12.6803 51.1797 12.9112C50.6723 13.1421 50.0068 13.2576 49.183 13.2576H48.1713V19.2001H44.4018V4.44397ZM48.1713 6.96864V10.7238C48.2787 10.7298 48.3712 10.7329 48.4488 10.7329C48.795 10.7329 49.0338 10.6478 49.1651 10.4777C49.3024 10.3015 49.3711 9.93993 49.3711 9.39306V8.18085C49.3711 7.67653 49.2935 7.34841 49.1383 7.1965C48.9831 7.0446 48.6607 6.96864 48.1713 6.96864Z"/>
<path d="M53.2787 4.44397H55.9468C57.7256 4.44397 58.9284 4.51384 59.5552 4.6536C60.1879 4.79335 60.7012 5.15185 61.0952 5.72909C61.4951 6.30026 61.6951 7.21473 61.6951 8.47251C61.6951 9.62092 61.5548 10.3926 61.2743 10.7876C60.9937 11.1825 60.4416 11.4195 59.6178 11.4985C60.364 11.6868 60.8654 11.939 61.122 12.255C61.3787 12.5709 61.5369 12.8626 61.5966 13.13C61.6623 13.3912 61.6951 14.1173 61.6951 15.3083V19.2001H58.1942V14.2966C58.1942 13.5067 58.1315 13.0175 58.0062 12.8292C57.8868 12.6408 57.5675 12.5466 57.0481 12.5466V19.2001H53.2787V4.44397ZM57.0481 6.96864V10.2498C57.472 10.2498 57.7674 10.1921 57.9346 10.0766C58.1077 9.95512 58.1942 9.56928 58.1942 8.91912V8.10794C58.1942 7.64007 58.1106 7.33322 57.9435 7.18739C57.7823 7.04156 57.4839 6.96864 57.0481 6.96864Z"/>
<path d="M62.836 4.44397H69.1215V7.39702H66.6055V10.1951H68.9603V13.0024H66.6055V16.2471H69.3722V19.2001H62.836V4.44397Z"/>
<path d="M78.1237 8.91H74.6228V7.81628C74.6228 7.30588 74.5781 6.9808 74.4885 6.84104C74.399 6.70129 74.2498 6.63141 74.0408 6.63141C73.814 6.63141 73.6409 6.72559 73.5215 6.91396C73.4081 7.10232 73.3514 7.38791 73.3514 7.77071C73.3514 8.26288 73.4171 8.63353 73.5484 8.88266C73.6738 9.13179 74.0289 9.43256 74.6139 9.78498C76.2912 10.7997 77.3477 11.6322 77.7835 12.2823C78.2192 12.9325 78.4371 13.9806 78.4371 15.4268C78.4371 16.478 78.3147 17.2527 78.07 17.7509C77.8312 18.2492 77.3656 18.6684 76.6732 19.0087C75.9808 19.3429 75.175 19.51 74.2557 19.51C73.247 19.51 72.3844 19.3156 71.6681 18.9267C70.9578 18.5378 70.4922 18.0426 70.2714 17.441C70.0505 16.8395 69.9401 15.9858 69.9401 14.8799V13.9138H73.441V15.7093C73.441 16.2623 73.4887 16.6177 73.5842 16.7757C73.6857 16.9337 73.8618 17.0127 74.1125 17.0127C74.3632 17.0127 74.5482 16.9124 74.6676 16.7119C74.793 16.5114 74.8556 16.2136 74.8556 15.8187C74.8556 14.9498 74.7392 14.3817 74.5064 14.1143C74.2677 13.8469 73.6797 13.4003 72.7426 12.7745C71.8054 12.1426 71.1846 11.6838 70.8802 11.3982C70.5758 11.1126 70.3221 10.7177 70.1192 10.2134C69.9222 9.70903 69.8237 9.06495 69.8237 8.28111C69.8237 7.15093 69.964 6.32456 70.2445 5.80201C70.531 5.27945 70.9906 4.87234 71.6234 4.58068C72.2561 4.28295 73.0201 4.13408 73.9155 4.13408C74.8944 4.13408 75.7271 4.2951 76.4136 4.61714C77.106 4.93918 77.5626 5.34629 77.7835 5.83846C78.0103 6.32456 78.1237 7.15397 78.1237 8.32668V8.91Z"/>
<path d="M87.2871 8.91H83.7862V7.81628C83.7862 7.30588 83.7415 6.9808 83.6519 6.84104C83.5624 6.70129 83.4132 6.63141 83.2042 6.63141C82.9774 6.63141 82.8043 6.72559 82.6849 6.91396C82.5715 7.10232 82.5148 7.38791 82.5148 7.77071C82.5148 8.26288 82.5805 8.63353 82.7118 8.88266C82.8371 9.13179 83.1923 9.43256 83.7773 9.78498C85.4546 10.7997 86.5111 11.6322 86.9469 12.2823C87.3826 12.9325 87.6005 13.9806 87.6005 15.4268C87.6005 16.478 87.4781 17.2527 87.2334 17.7509C86.9946 18.2492 86.529 18.6684 85.8366 19.0087C85.1442 19.3429 84.3384 19.51 83.4191 19.51C82.4104 19.51 81.5478 19.3156 80.8315 18.9267C80.1212 18.5378 79.6556 18.0426 79.4348 17.441C79.2139 16.8395 79.1035 15.9858 79.1035 14.8799V13.9138H82.6043V15.7093C82.6043 16.2623 82.6521 16.6177 82.7476 16.7757C82.8491 16.9337 83.0252 17.0127 83.2759 17.0127C83.5266 17.0127 83.7116 16.9124 83.831 16.7119C83.9564 16.5114 84.019 16.2136 84.019 15.8187C84.019 14.9498 83.9026 14.3817 83.6698 14.1143C83.4311 13.8469 82.8431 13.4003 81.906 12.7745C80.9688 12.1426 80.348 11.6838 80.0436 11.3982C79.7392 11.1126 79.4855 10.7177 79.2826 10.2134C79.0856 9.70903 78.9871 9.06495 78.9871 8.28111C78.9871 7.15093 79.1274 6.32456 79.4079 5.80201C79.6944 5.27945 80.154 4.87234 80.7868 4.58068C81.4195 4.28295 82.1835 4.13408 83.0789 4.13408C84.0578 4.13408 84.8905 4.2951 85.577 4.61714C86.2694 4.93918 86.726 5.34629 86.9469 5.83846C87.1737 6.32456 87.2871 7.15397 87.2871 8.32668V8.91Z"/>
<path d="M88.4639 4.44397H94.7493V7.39702H92.2333V10.1951H94.5881V13.0024H92.2333V16.2471H95V19.2001H88.4639V4.44397Z"/>
</svg>
