<svg width="32" height="32" viewBox="0 0 32 32" fill="none" xmlns="http://www.w3.org/2000/svg">
<path d="M18.5 29.5001L17.0744 30.4694C16.421 30.9138 15.5673 30.9317 14.8958 30.5153L14.3936 30.2039C10.2594 27.6337 3.5 23.7692 3.5 19.5015V7.35132C3.5 6.06537 4.31958 4.92244 5.53756 4.50989L14.9413 1.32469C15.5632 1.11406 16.2369 1.11324 16.8593 1.32235L26.3554 4.51309C27.5769 4.92353 28.3999 6.06822 28.3999 7.35686V19.5453C28.3999 20.559 28.13 21.5475 27.5 22.5001" stroke="#485885" stroke-width="1.5" stroke-linecap="round" stroke-linejoin="round"/>
<path fill-rule="evenodd" clip-rule="evenodd" d="M22.8002 20C25.893 20 28.4002 22.5072 28.4002 25.6C28.4002 28.6927 25.893 31.2 22.8002 31.2C19.7074 31.2 17.2002 28.6927 17.2002 25.6C17.2002 22.5072 19.7074 20 22.8002 20Z" stroke="#485885" stroke-width="1.5" stroke-linecap="round" stroke-linejoin="round"/>
<path fill-rule="evenodd" clip-rule="evenodd" d="M20.4004 25.4764L22.0171 27.2L25.2004 24" fill="white"/>
<path d="M20.4004 25.4764L22.0171 27.2L25.2004 24" stroke="#485885" stroke-width="1.5" stroke-linecap="round" stroke-linejoin="round"/>
<path d="M16.8002 12.4L8.8836 18.897C7.98189 19.637 7.91526 20.9934 8.74009 21.8183V21.8183C9.51641 22.5946 10.777 22.5882 11.5454 21.804L18.8002 14.4" stroke="#485885" stroke-width="1.5" stroke-linecap="round" stroke-linejoin="round"/>
<path d="M17.9111 13.4515C19.4084 14.9488 21.8359 14.9488 23.3332 13.4515C24.3977 12.387 24.7054 10.8524 24.2563 9.51609L22.2853 11.4872C21.6995 12.0729 20.7497 12.0729 20.1639 11.4872L19.8754 11.1986C19.2896 10.6128 19.2896 9.6631 19.8754 9.07731L21.8465 7.10625C20.5102 6.65719 18.9755 6.9649 17.9111 8.02936C16.4138 9.52665 16.4138 11.9542 17.9111 13.4515Z" stroke="#485885" stroke-width="1.5" stroke-linecap="round" stroke-linejoin="round"/>
</svg>
