<svg width="60" height="20" viewBox="0 0 60 20" fill="none" xmlns="http://www.w3.org/2000/svg">
<g opacity="0.9">
<path fill-rule="evenodd" clip-rule="evenodd" d="M1 15.0795V18C1 18 10.2223 12.6562 12.1848 11.5623C14.1473 10.465 14.3296 8.00197 12.1848 6.72238C10.1792 5.52898 4.97137 2.52228 4.33157 2.15763C3.69178 1.79298 3.1448 2.06481 3.1448 2.93334V11.8838L5.65757 10.5147V5.85717L11.1373 9.09924L1 15.0795ZM24.9338 9.51696V9.5932C24.8912 13.2565 21.4255 12.8057 21.3483 12.7957C21.3475 12.7955 21.347 12.7955 21.347 12.7955V9.58326V7.61083V6.24174C21.347 6.24174 23.5382 5.93345 24.4929 7.6042C24.7615 8.0683 24.9338 8.69152 24.9338 9.51696ZM28.166 14.4861V9.58326L28.1726 7.61083V4.54446H33.3108V6.24174H30.1318V7.61083V8.41306H33.1981V9.58326V10.1103H30.1318V12.7988H33.3009V14.4861H28.166ZM34.9882 14.4861V9.58326V7.61083V4.53452H36.9441V7.61083V8.68821L37.7463 7.61083L40.037 4.53452H42.4138L39.9077 7.61083L38.6513 9.16225L38.9695 9.58326L42.6823 14.4861H40.1397L36.9441 10.0573V14.4861H34.9882ZM45.5432 9.10258V7.61083V6.12903H46.0073C47.688 6.11909 47.6184 7.58431 47.6184 7.58431V7.61083C47.6184 7.8031 47.5222 9.10258 46.0073 9.10258H45.5432ZM54.7721 7.18983L53.5058 10.7866H56.0053L54.7721 7.18983ZM53.6782 5.44614C54.2583 3.95108 55.2859 3.90467 55.8694 5.44614C56.4528 6.9843 59.2606 14.4861 59.2573 14.4861H57.2716L56.4495 12.3977H52.9555L52.203 14.4861H50.3201H50.2505H47.9764L45.5399 10.4883V14.4861H43.584V9.58326V7.61083V4.53452H46.3156C49.7532 4.53452 49.5112 7.60089 49.5112 7.60089V7.60752C49.5112 8.55561 49.183 9.17551 48.8051 9.58989C48.2283 10.1932 47.5222 10.3324 47.5222 10.3324L50.277 14.4198C50.3629 14.1948 50.6632 13.4 51.0548 12.3634C51.9321 10.0409 53.2679 6.50506 53.6782 5.44614ZM19.3613 4.53452V7.61083V9.58326V14.4828H22.0829C26.7538 14.4994 26.9494 10.1932 26.9593 9.57331V9.51364C26.9593 9.3943 26.9593 8.56555 26.6411 7.61083C26.167 6.20528 24.9935 4.53452 22.0829 4.53452H19.3613Z" fill="#63749B"/>
</g>
</svg>
