<svg width="43" height="28" viewBox="0 0 43 28" fill="none" xmlns="http://www.w3.org/2000/svg">
<path d="M39.9746 22.2811L39.9791 22.2765C40.0218 22.0912 40.0432 21.9409 40.0432 21.8257C40.0432 21.7281 40.0103 21.6605 39.9455 21.6227C39.88 21.5848 39.7656 21.5659 39.6019 21.5659H39.4656L39.5019 21.3955C39.8113 21.3739 40.1221 21.3233 40.4344 21.2428C40.7467 21.1622 40.9075 21.1216 40.9165 21.1216C40.9469 21.1216 40.9696 21.1286 40.985 21.1422C40.9998 21.1562 41.009 21.1781 41.0119 21.2085C41.0119 21.2266 41.006 21.2558 40.994 21.2951C40.994 21.3011 40.9923 21.3058 40.9893 21.3086L40.1796 24.3934C40.4253 24.0768 40.6718 23.8447 40.9189 23.6969C41.1659 23.5487 41.4322 23.4751 41.7174 23.4751C42.1027 23.4751 42.4117 23.6008 42.6455 23.852C42.8788 24.103 42.9954 24.437 42.9954 24.8541C42.9954 25.1829 42.9297 25.5133 42.7979 25.8446C42.6658 26.1771 42.4741 26.4902 42.2214 26.7855C41.8938 27.175 41.5386 27.4657 41.154 27.6575C40.7706 27.8495 40.3554 27.945 39.9092 27.945C39.5698 27.945 39.2836 27.8845 39.0531 27.7621C38.8225 27.6401 38.707 27.496 38.707 27.3278C38.707 27.3066 38.7089 27.2844 38.712 27.2617C38.7152 27.2389 38.7228 27.2076 38.7346 27.168L39.9746 22.2811ZM39.5019 27.0308C39.4896 27.0859 39.4806 27.1356 39.4743 27.1796C39.4687 27.2235 39.4657 27.2641 39.4657 27.3006C39.4657 27.4283 39.5193 27.5273 39.627 27.5968C39.7348 27.6669 39.8884 27.7016 40.0889 27.7016C40.2951 27.7016 40.4938 27.6584 40.6843 27.5718C40.8755 27.4852 41.0532 27.3582 41.2169 27.191C41.5079 26.8955 41.7407 26.5452 41.915 26.1388C42.0894 25.7328 42.1765 25.3356 42.1765 24.9459C42.1765 24.6386 42.1002 24.3932 41.947 24.211C41.7936 24.0285 41.5897 23.9374 41.3352 23.9374C41.0256 23.9374 40.7457 24.078 40.4959 24.359C40.2455 24.6409 40.0506 25.0355 39.9112 25.5436L39.5019 27.0308Z" fill="black"/>
<path d="M34.2562 23.8768L34.2835 23.7066C34.693 23.6579 35.1107 23.591 35.5353 23.5056C35.6443 23.4815 35.705 23.4692 35.7174 23.4692C35.7567 23.4692 35.787 23.4752 35.8083 23.4874C35.8295 23.4995 35.84 23.5164 35.84 23.5376C35.84 23.5648 35.8368 23.598 35.8309 23.636C35.8249 23.674 35.8157 23.7159 35.8036 23.7616L35.0661 26.3353C35.0175 26.5086 34.9788 26.6609 34.95 26.7931C34.9213 26.9251 34.9066 27.0184 34.9066 27.073C34.9066 27.1641 34.9323 27.2369 34.9841 27.2915C35.0358 27.3463 35.1042 27.3734 35.1889 27.3734C35.3745 27.3734 35.5909 27.2618 35.838 27.0383C36.0849 26.8149 36.3623 26.4811 36.6688 26.0369C36.9083 25.6935 37.113 25.3189 37.2838 24.9126C37.4533 24.5068 37.5946 24.056 37.7067 23.5604H38.4306L37.6293 26.5403C37.5898 26.6921 37.5601 26.8208 37.5405 26.9276C37.5207 27.0338 37.5109 27.1124 37.5109 27.1641C37.5109 27.2341 37.5263 27.2859 37.5565 27.3211C37.5869 27.3561 37.6339 27.3734 37.6977 27.3734C37.792 27.3734 37.9028 27.3126 38.0325 27.1915C38.1615 27.0703 38.3046 26.8908 38.4626 26.6541L38.5899 26.7815C38.3627 27.1559 38.1269 27.442 37.884 27.6386C37.6417 27.8349 37.4049 27.933 37.1747 27.933C37.019 27.933 36.9032 27.8927 36.8256 27.8121C36.7483 27.7314 36.7097 27.6105 36.7097 27.4489C36.7097 27.3543 36.7211 27.244 36.7439 27.1178C36.7666 26.9911 36.8008 26.849 36.8464 26.6906L37.1385 25.6937C36.64 26.4812 36.2003 27.0512 35.8174 27.4042C35.4354 27.757 35.07 27.9331 34.7211 27.9331C34.5387 27.9331 34.3966 27.8778 34.2952 27.7665C34.1938 27.6554 34.1426 27.4999 34.1426 27.2987C34.1426 27.1864 34.1556 27.0578 34.1814 26.9131C34.2074 26.7686 34.2622 26.5367 34.3475 26.217L34.7704 24.6962C34.7919 24.6051 34.8091 24.5142 34.823 24.4234C34.8364 24.3321 34.8434 24.2514 34.8434 24.1819C34.8434 24.0635 34.8044 23.9835 34.7275 23.9407C34.65 23.898 34.4928 23.8768 34.2562 23.8768Z" fill="black"/>
<path d="M33.9013 26.8291C33.6555 27.1723 33.4072 27.441 33.1551 27.6353C32.9035 27.8296 32.6821 27.9267 32.4911 27.9267C32.3488 27.9267 32.2355 27.8856 32.1523 27.8036C32.069 27.722 32.0273 27.6077 32.0273 27.4621C32.0273 27.3009 32.0937 26.9787 32.2271 26.4962L32.2411 26.4411L33.4237 22.0717C33.4359 22.0232 33.4451 21.9774 33.4508 21.9348C33.4571 21.8924 33.4598 21.8544 33.4598 21.8208C33.4598 21.6812 33.4222 21.5866 33.3465 21.5382C33.2708 21.4893 33.1112 21.462 32.8688 21.4558L32.8823 21.2856C33.2946 21.2396 33.7118 21.1754 34.1332 21.0926C34.2424 21.0714 34.3047 21.0605 34.3199 21.0605C34.3562 21.0605 34.3837 21.0674 34.4019 21.0815C34.4199 21.0953 34.4288 21.1158 34.4288 21.1438C34.4288 21.1679 34.4259 21.1969 34.4199 21.2305C34.414 21.2643 34.405 21.2979 34.3927 21.3317L32.9233 26.6603C32.8929 26.7698 32.8696 26.8688 32.8527 26.9565C32.836 27.045 32.8278 27.1044 32.8278 27.1347C32.8278 27.2074 32.8425 27.2615 32.8715 27.2965C32.8997 27.3313 32.9417 27.3489 32.9963 27.3489C33.0872 27.3489 33.1887 27.3004 33.301 27.203C33.4132 27.1054 33.5631 26.9341 33.7511 26.6876L33.9013 26.8291Z" fill="black"/>
<path d="M31.4171 26.4309L31.59 26.5861C31.2047 27.0696 30.7937 27.426 30.3562 27.6554C29.9197 27.8852 29.4374 27.9999 28.9099 27.9999C28.0908 27.9999 27.4394 27.763 26.9575 27.2883C26.4753 26.8143 26.2344 26.1761 26.2344 25.3735C26.2344 24.9236 26.3243 24.4773 26.5048 24.035C26.6853 23.5927 26.9517 23.1709 27.3033 22.7697C27.726 22.2896 28.2011 21.9173 28.7303 21.6525C29.2595 21.3879 29.7938 21.2559 30.3334 21.2559C30.6428 21.2559 30.963 21.3059 31.2917 21.4059C31.6209 21.5065 31.8051 21.5566 31.8446 21.5566C31.9051 21.5566 31.9642 21.536 32.0223 21.4951C32.0796 21.454 32.1283 21.3955 32.1677 21.3195H32.3541L31.972 23.2381H31.7807C31.7807 23.2016 31.7817 23.1621 31.7831 23.1197C31.7849 23.077 31.7855 23.0204 31.7855 22.9498C31.7855 22.5051 31.6681 22.1634 31.433 21.9243C31.1979 21.6852 30.862 21.5659 30.4255 21.5659C30.0525 21.5659 29.6868 21.6614 29.329 21.8529C28.9713 22.0449 28.636 22.3242 28.3239 22.6919C28.0055 23.0661 27.7604 23.4895 27.589 23.9618C27.4179 24.4346 27.332 24.925 27.332 25.4327C27.332 26.1016 27.4958 26.6297 27.8234 27.0171C28.1513 27.4046 28.5968 27.5987 29.1607 27.5987C29.5672 27.5987 29.9602 27.5004 30.339 27.3044C30.7181 27.1082 31.0774 26.817 31.4171 26.4309Z" fill="black"/>
<path d="M21.0039 27.9163L21.2084 26.382L21.3683 26.3913C21.3865 26.8148 21.4778 27.1418 21.6422 27.3731C21.8058 27.6046 22.0266 27.7201 22.3032 27.7201C22.5248 27.7201 22.7066 27.645 22.8477 27.4944C22.9892 27.344 23.0597 27.1483 23.0597 26.9079C23.0597 26.6948 22.9142 26.3965 22.6241 26.0135C22.5867 25.9679 22.5596 25.9326 22.5414 25.9082C22.5201 25.8777 22.4868 25.8343 22.4412 25.7765C22.057 25.2687 21.865 24.8642 21.865 24.5637C21.865 24.2503 21.9754 23.9901 22.1959 23.7815C22.4155 23.5734 22.6916 23.4692 23.0231 23.4692C23.1988 23.4692 23.3944 23.5021 23.6082 23.5683C23.823 23.6348 23.9541 23.6678 24.0025 23.6678C24.0571 23.6678 24.1047 23.6515 24.1459 23.6194C24.1865 23.5873 24.2109 23.5477 24.217 23.5015H24.3762L24.189 24.8924H24.0298C23.9865 24.4983 23.8899 24.2041 23.7393 24.0098C23.5895 23.8161 23.3832 23.7188 23.1209 23.7188C22.9691 23.7188 22.8386 23.7703 22.7309 23.8734C22.6223 23.9769 22.5688 24.1012 22.5688 24.2467C22.5688 24.4467 22.716 24.7366 23.0092 25.1158C23.0426 25.1615 23.0689 25.1948 23.0874 25.2158C23.1239 25.2673 23.178 25.3403 23.2509 25.4346C23.621 25.9185 23.8058 26.3169 23.8058 26.6301C23.8058 27.0101 23.6718 27.3295 23.4027 27.5879C23.1345 27.8465 22.7988 27.9755 22.3981 27.9755C22.1942 27.9755 21.9843 27.9431 21.7673 27.8778C21.5498 27.8121 21.426 27.7793 21.3959 27.7793C21.341 27.7793 21.2963 27.7911 21.2616 27.8137C21.2269 27.8365 21.2025 27.8706 21.1902 27.9164H21.0039V27.9163Z" fill="black"/>
<path d="M18.3965 27.8534L19.1869 25.0014C19.2328 24.84 19.2673 24.6983 19.2917 24.5766C19.3162 24.4547 19.3282 24.3635 19.3282 24.3029C19.3282 24.1779 19.2885 24.0912 19.21 24.042C19.1308 23.9934 18.9719 23.9648 18.7313 23.9554L18.7586 23.7789C19.0929 23.7306 19.5712 23.6399 20.1939 23.5083C20.2361 23.5083 20.2626 23.5138 20.2733 23.5243C20.2842 23.5353 20.2895 23.5574 20.2895 23.5911C20.2895 23.6033 20.2871 23.6218 20.2827 23.6461C20.2782 23.6702 20.2712 23.6979 20.2621 23.7285L19.7928 25.4125C20.1577 24.7824 20.4746 24.3119 20.745 24.0015C21.0158 23.6908 21.2462 23.5358 21.4374 23.5358C21.5645 23.5358 21.6657 23.5745 21.7386 23.6521C21.8113 23.73 21.8477 23.8371 21.8477 23.9742C21.8477 24.1385 21.7976 24.2784 21.6974 24.3927C21.5965 24.5066 21.4752 24.5637 21.3328 24.5637C21.2234 24.5637 21.1305 24.5286 21.0523 24.4589C20.9747 24.3883 20.9288 24.2955 20.9134 24.1796C20.5185 24.5842 20.1743 25.0924 19.8795 25.7039C19.5853 26.3156 19.339 27.0318 19.1419 27.8534H18.3965Z" fill="black"/>
<path d="M17.8215 26.7228L17.9624 26.8651C17.6645 27.2377 17.356 27.5121 17.0362 27.6876C16.7156 27.8635 16.3637 27.9514 15.9814 27.9514C15.5803 27.9514 15.2664 27.8222 15.0382 27.5636C14.8109 27.3052 14.6973 26.9462 14.6973 26.487C14.6973 26.1339 14.7729 25.7794 14.9246 25.4239C15.0761 25.0679 15.292 24.7391 15.5712 24.438C15.8623 24.1311 16.1756 23.8904 16.5091 23.7171C16.8426 23.5437 17.1618 23.457 17.4652 23.457C17.7444 23.457 17.959 23.5179 18.1074 23.6395C18.2559 23.7612 18.3305 23.934 18.3305 24.1591C18.3305 24.5753 18.0878 24.9379 17.6016 25.2461C17.1156 25.5546 16.4493 25.765 15.6024 25.8776C15.5781 26.0051 15.5603 26.1223 15.55 26.2286C15.5394 26.3351 15.5341 26.4231 15.5341 26.4935C15.5341 26.8309 15.606 27.0834 15.7509 27.2507C15.8948 27.4178 16.1107 27.5015 16.3997 27.5015C16.6182 27.5015 16.8494 27.4354 17.0929 27.3021C17.3356 27.1695 17.5787 26.9765 17.8215 26.7228ZM15.6387 25.6644C16.2378 25.5828 16.7124 25.3985 17.0631 25.1128C17.4145 24.827 17.5904 24.4848 17.5904 24.0863C17.5904 23.9678 17.5608 23.8759 17.5015 23.8104C17.4418 23.745 17.3589 23.7127 17.253 23.7127C16.9641 23.7127 16.6648 23.8949 16.3546 24.2597C16.0446 24.6247 15.8061 25.0929 15.6387 25.6644Z" fill="black"/>
<path d="M10.0918 27.8599L10.9898 24.8203C11.0292 24.69 11.0593 24.5751 11.0792 24.4769C11.0988 24.378 11.1079 24.3 11.1079 24.2422C11.1079 24.133 11.0675 24.055 10.9876 24.008C10.9071 23.9608 10.7684 23.9374 10.5713 23.9374H10.4938L10.5212 23.7669C10.9879 23.7188 11.4483 23.64 11.9002 23.5313C11.9909 23.5102 12.0441 23.4995 12.0596 23.4995C12.0775 23.4995 12.0904 23.5055 12.0981 23.5176C12.1055 23.5298 12.1093 23.5539 12.1093 23.5904C12.1065 23.5993 12.1019 23.6164 12.096 23.6422C12.0895 23.6684 12.0776 23.7095 12.0596 23.7668L11.5401 25.4307C11.9856 24.8145 12.4131 24.3416 12.8228 24.0118C13.2323 23.6825 13.5934 23.5175 13.9053 23.5175C14.0781 23.5175 14.212 23.5616 14.3059 23.6499C14.3999 23.7377 14.4468 23.8639 14.4468 24.0276C14.4468 24.1312 14.4354 24.2485 14.4129 24.3809C14.39 24.5128 14.3574 24.6535 14.3151 24.802L13.7839 26.6348C13.7389 26.7899 13.7078 26.9062 13.6908 26.9836C13.674 27.0614 13.6661 27.1237 13.6661 27.1726C13.6661 27.2428 13.6828 27.2965 13.7161 27.3344C13.7491 27.3726 13.7972 27.3913 13.8606 27.3913C13.9548 27.3913 14.0603 27.3267 14.1761 27.1974C14.2928 27.0683 14.4287 26.8691 14.5827 26.5984L14.7316 26.7077C14.5015 27.1398 14.273 27.4605 14.0457 27.6686C13.8188 27.8776 13.5856 27.9813 13.346 27.9813C13.2011 27.9813 13.0865 27.9368 13.0029 27.8468C12.9197 27.7572 12.8781 27.6331 12.8781 27.4743C12.8781 27.4045 12.8887 27.3148 12.9099 27.2052C12.9313 27.0958 12.9645 26.9619 13.0106 26.8036L13.4973 25.0074C13.54 24.8369 13.5703 24.7028 13.5883 24.6043C13.6069 24.5053 13.6159 24.4253 13.6159 24.3647C13.6159 24.2642 13.5959 24.1911 13.5565 24.1456C13.517 24.1001 13.4566 24.077 13.3744 24.077C13.2227 24.077 13.0313 24.1702 12.7982 24.3556C12.5663 24.541 12.3168 24.8029 12.05 25.1403C11.7895 25.4721 11.5661 25.8424 11.3814 26.2514C11.1956 26.6607 11.0183 27.197 10.8483 27.8599H10.0918Z" fill="black"/>
<path d="M8.40863 23.8822L8.44504 23.724C8.88768 23.6715 9.31843 23.5995 9.73762 23.5072C9.82267 23.4853 9.87086 23.4746 9.88334 23.4746C9.91379 23.4746 9.93795 23.4854 9.95592 23.5072C9.97423 23.5285 9.98332 23.5559 9.98332 23.59C9.98332 23.611 9.9803 23.6349 9.97423 23.6608C9.96816 23.6871 9.95905 23.7203 9.9468 23.7601L9.05173 26.7489C9.02723 26.8371 9.00915 26.9103 8.99713 26.9697C8.98488 27.029 8.97856 27.0785 8.97856 27.1178C8.97856 27.2058 8.99549 27.2733 9.03014 27.3206C9.06514 27.3678 9.11355 27.3911 9.1741 27.3911C9.26428 27.3911 9.3806 27.3283 9.52166 27.2021C9.66271 27.0763 9.81381 26.8992 9.97423 26.6714L10.1152 26.8124C9.85441 27.1846 9.5974 27.467 9.34574 27.6604C9.09409 27.8543 8.85596 27.9508 8.63138 27.9508C8.48204 27.9508 8.3692 27.9073 8.29197 27.8209C8.21438 27.7337 8.17578 27.6065 8.17578 27.4393C8.17578 27.3535 8.18733 27.2527 8.20985 27.1351C8.23295 27.0178 8.27461 26.8542 8.33586 26.6441L8.93353 24.5245L8.93774 24.511C8.97718 24.3563 8.99713 24.2543 8.99713 24.2056C8.99713 24.0877 8.95302 24.0041 8.86634 23.9552C8.78 23.9065 8.62692 23.8822 8.40863 23.8822ZM9.38889 21.9079C9.38889 21.7834 9.43825 21.6718 9.53707 21.5734C9.63483 21.4747 9.74426 21.4253 9.86559 21.4253C9.99626 21.4253 10.1084 21.473 10.2041 21.5689C10.2994 21.6643 10.3474 21.777 10.3474 21.9079C10.3474 22.0449 10.3009 22.1586 10.2085 22.2495C10.1161 22.3404 10.002 22.3863 9.86559 22.3863C9.73866 22.3863 9.62678 22.3391 9.53217 22.2451C9.43673 22.1508 9.38889 22.0386 9.38889 21.9079Z" fill="black"/>
<path d="M0.996094 27.8595L1.05534 27.6709H1.10063C1.39183 27.6709 1.6037 27.6177 1.7353 27.5117C1.86713 27.4054 1.9789 27.1852 2.06955 26.8511L3.23496 22.5021C3.26541 22.3899 3.28651 22.2966 3.29853 22.2219C3.31078 22.1472 3.31685 22.083 3.31685 22.0282C3.31685 21.8827 3.26458 21.7758 3.15993 21.7074C3.05516 21.639 2.87341 21.5956 2.61242 21.5775L2.66699 21.395H5.13572C6.06358 21.395 6.79603 21.6344 7.33143 22.1132C7.86728 22.5928 8.13492 23.2469 8.13492 24.0777C8.13492 24.6888 7.98545 25.2591 7.6869 25.7883C7.38811 26.3176 6.95678 26.7741 6.39175 27.1574C6.04327 27.3973 5.65652 27.5744 5.23196 27.6886C4.80671 27.8029 4.33046 27.8596 3.80289 27.8596H0.996094V27.8595ZM4.16736 22.4747L3.05762 26.6185C3.02413 26.7463 2.99673 26.8602 2.97573 26.9608C2.95449 27.0611 2.94445 27.1328 2.94445 27.1756C2.94445 27.3092 3.01283 27.4052 3.15073 27.4627C3.28898 27.5206 3.5216 27.5492 3.84909 27.5492C4.22826 27.5492 4.5791 27.4985 4.90204 27.3966C5.22509 27.2946 5.50403 27.1463 5.74028 26.9516C6.13777 26.6323 6.4565 26.1914 6.69567 25.6307C6.93578 25.0693 7.05514 24.478 7.05514 23.8575C7.05514 23.1546 6.88178 22.6191 6.53423 22.2512C6.18691 21.8829 5.67996 21.6992 5.01344 21.6992C4.73145 21.6992 4.54315 21.7368 4.44924 21.8131C4.35555 21.889 4.26163 22.1095 4.16736 22.4747Z" fill="black"/>
<path d="M28.2862 19.3635C33.6189 19.3635 37.9421 15.0283 37.9421 9.68187C37.9421 4.335 33.6189 0 28.2862 0H16.6407C11.3075 0 6.98438 4.33489 6.98438 9.68187C6.98438 15.0283 11.3075 19.3635 16.6407 19.3635H28.2862Z" fill="#0054A6"/>
<path d="M26.0962 9.68226C26.0962 14.9169 21.8634 19.1619 16.6418 19.1619C11.4202 19.1619 7.1875 14.9169 7.1875 9.68226C7.1875 4.44734 11.4202 0.202881 16.6418 0.202881C21.8634 0.202881 26.0962 4.44734 26.0962 9.68226Z" fill="white"/>
<path d="M10.7207 9.6825C10.7207 12.205 12.2929 14.354 14.5058 15.2136V4.15186C12.2929 5.01107 10.7207 7.16032 10.7207 9.6825Z" fill="#0054A6"/>
<path d="M22.5604 9.68266C22.5604 7.16118 20.9896 5.01228 18.7773 4.15283V15.2124C20.9896 14.3535 22.5604 12.204 22.5604 9.68266Z" fill="#0054A6"/>
</svg>
