<svg width="45" height="28" viewBox="0 0 45 28" fill="none" xmlns="http://www.w3.org/2000/svg">
<path d="M1.1543 0.161263L44.835 0.158447L44.836 27.8404L1.15571 27.8409L1.1543 0.161263Z" fill="white"/>
<path d="M44.8359 0L0.996094 0.00293284L0.997274 28L44.9961 27.9994L44.9943 0H44.8359ZM44.6761 0.317221C44.6761 0.628458 44.6774 27.3698 44.6774 27.6816C44.3615 27.6816 1.63248 27.6828 1.31529 27.6828C1.31529 27.371 1.31434 0.630804 1.31434 0.31945C1.63082 0.31945 44.3603 0.317221 44.6761 0.317221Z" fill="black"/>
<path d="M44.6742 15.5547C44.6742 15.5547 32.7402 23.9322 10.8828 27.684H44.6742V15.5547Z" fill="#F58220"/>
<path d="M24.0387 7.10742C22.2456 7.10742 20.791 8.50101 20.791 10.221C20.791 12.0494 22.1825 13.4164 24.0387 13.4164C25.8486 13.4164 27.2776 12.0315 27.2776 10.2569C27.2775 8.49268 25.858 7.10742 24.0387 7.10742Z" fill="url(#paint0_radial)"/>
<path d="M5.60166 7.2207H3.85547V13.2796H5.59234C6.51383 13.2796 7.1804 13.0622 7.76502 12.5805C8.4587 12.0081 8.87011 11.145 8.87011 10.2531C8.87023 8.46436 7.52696 7.2207 5.60166 7.2207ZM6.9902 11.7712C6.61476 12.1083 6.13145 12.2538 5.36336 12.2538H5.04416V8.24674H5.36336C6.13145 8.24674 6.59625 8.38318 6.9902 8.73712C7.40101 9.10056 7.64604 9.66333 7.64604 10.2445C7.64592 10.8267 7.40101 11.4092 6.9902 11.7712Z" fill="black"/>
<path d="M10.6045 7.2207H9.41797V13.2796H10.6045V7.2207Z" fill="black"/>
<path d="M13.5091 9.54489C12.7959 9.28199 12.5861 9.10859 12.5861 8.78269C12.5861 8.40083 12.9598 8.11036 13.472 8.11036C13.8281 8.11036 14.1203 8.25559 14.4317 8.5998L15.0518 7.79255C14.5405 7.3464 13.9288 7.11963 13.2615 7.11963C12.1851 7.11963 11.3626 7.86493 11.3626 8.85425C11.3626 9.69083 11.7458 10.1174 12.8602 10.5183C13.3261 10.681 13.5631 10.7895 13.682 10.8635C13.9195 11.018 14.0387 11.2353 14.0387 11.4896C14.0387 11.9808 13.6456 12.3437 13.1152 12.3437C12.5491 12.3437 12.093 12.0625 11.8188 11.5356L11.0527 12.2724C11.5995 13.0707 12.2571 13.4261 13.162 13.4261C14.3948 13.4261 15.2619 12.6074 15.2619 11.4358C15.2618 10.4726 14.861 10.0362 13.5091 9.54489Z" fill="black"/>
<path d="M15.6367 10.2531C15.6367 12.0356 17.0434 13.4162 18.852 13.4162C19.3633 13.4162 19.8016 13.3159 20.3409 13.0623V11.6716C19.8653 12.1445 19.4452 12.3347 18.9062 12.3347C17.7101 12.3347 16.8603 11.4715 16.8603 10.2445C16.8603 9.0821 17.7368 8.16434 18.852 8.16434C19.4173 8.16434 19.8471 8.36425 20.3409 8.84571V7.45493C19.8204 7.19227 19.3904 7.08398 18.8792 7.08398C17.0796 7.08398 15.6367 8.49247 15.6367 10.2531Z" fill="black"/>
<path d="M29.9653 11.2907L28.3398 7.2207H27.043L29.6282 13.4343H30.267L32.8975 7.2207H31.6103L29.9653 11.2907Z" fill="black"/>
<path d="M33.4375 13.2796H36.8068V12.2538H34.6246V10.6175H36.7233V9.59141H34.6246V8.24674H36.8068V7.2207H33.4375V13.2796Z" fill="black"/>
<path d="M41.5073 9.00882C41.5073 7.8738 40.7232 7.2207 39.3525 7.2207H37.5898V13.2796H38.7782V10.8445H38.9336L40.5766 13.2796H42.0378L40.119 10.7274C41.015 10.5451 41.5073 9.93608 41.5073 9.00882ZM39.1237 10.0093H38.778V8.17342H39.1426C39.884 8.17342 40.2856 8.48325 40.2856 9.07288C40.2857 9.68116 39.884 10.0093 39.1237 10.0093Z" fill="black"/>
<path d="M42.3455 7.67158C42.3455 7.56541 42.2742 7.50781 42.1436 7.50781H41.9707V8.04148H42.0977V7.83395L42.2478 8.04148H42.407L42.2287 7.82093C42.3039 7.8011 42.3455 7.74584 42.3455 7.67158ZM42.1216 7.7442H42.0978V7.60542H42.1228C42.186 7.60542 42.2182 7.6283 42.2182 7.6737C42.2181 7.72051 42.1847 7.7442 42.1216 7.7442Z" fill="black"/>
<path d="M42.1695 7.30713C41.9098 7.30713 41.7012 7.51489 41.7012 7.77334C41.7012 8.0319 41.9108 8.23967 42.1695 8.23967C42.4241 8.23967 42.6321 8.02979 42.6321 7.77334C42.6321 7.51783 42.4241 7.30713 42.1695 7.30713ZM42.1689 8.15602C41.9609 8.15602 41.7935 7.98556 41.7935 7.77451C41.7935 7.56135 41.9598 7.39207 42.1689 7.39207C42.371 7.39207 42.5378 7.56464 42.5378 7.77451C42.5378 7.98415 42.371 8.15602 42.1689 8.15602Z" fill="black"/>
<defs>
<radialGradient id="paint0_radial" cx="0" cy="0" r="1" gradientUnits="userSpaceOnUse" gradientTransform="translate(24.0343 10.2619) scale(3.20708 3.1908)">
<stop offset="0.0056" stop-color="#FFEFE1"/>
<stop offset="0.0968" stop-color="#FFEAD8"/>
<stop offset="0.2456" stop-color="#FEDEC1"/>
<stop offset="0.4337" stop-color="#FDCA9E"/>
<stop offset="0.6534" stop-color="#FAAF72"/>
<stop offset="0.8971" stop-color="#F79038"/>
<stop offset="1" stop-color="#F58220"/>
</radialGradient>
</defs>
</svg>
