<svg width="48" height="48" viewBox="0 0 48 48" fill="none" xmlns="http://www.w3.org/2000/svg">
<path d="M35.1379 8.38974L39.6309 9.88331C40.4484 10.1551 41 10.9197 41 11.7812V26.7435C41 32.0644 30.6009 39.9774 24.9864 43.4136C24.3791 43.7853 23.6209 43.7853 23.0136 43.4136C17.3991 39.9774 7 32.0644 7 26.7435V11.7812C7 10.9197 7.55162 10.1551 8.3691 9.88331L14.0345 8" stroke="#67B92E" stroke-width="3" stroke-linecap="round" stroke-linejoin="round"/>
<path d="M25.5 22.4999V22.2036" stroke="#3E47DD" stroke-width="1.5" stroke-linecap="round" stroke-linejoin="round"/>
<path d="M28.5 22.7963V22.5" stroke="#3E47DD" stroke-width="1.5" stroke-linecap="round" stroke-linejoin="round"/>
<path d="M24.2969 24.3149C24.8895 25.2038 25.4821 25.5001 26.6672 25.5001" stroke="#3E47DD" stroke-width="1.5" stroke-linecap="round" stroke-linejoin="round"/>
<path d="M20.5 29.5C20.9571 30.3779 21.6963 31.4465 24.5 32.5C25.1603 32.061 26 31.5 26 30" stroke="#3E47DD" stroke-width="1.5" stroke-linecap="round" stroke-linejoin="round"/>
<path d="M20 22C19.9009 21.292 19.2477 18.3427 19 17.4999C20.7778 17.7962 25.0381 17.7033 27.5 16.9999C29.5741 16.4073 32.5 17.0185 32.5 18.5C32.5 19.9815 30.7339 20.5 29 20.5C27.6535 20.5 25.7682 20.1698 25 20C24.2318 19.8302 23.1193 19.1208 22.5 19.5C21.8807 19.8793 21.6591 20.6111 22.2517 21.5C22.6192 22.0513 22.5489 22.6965 22.2517 22.9999C21.9544 23.3033 21.5926 23.0926 21 22.5C20.4074 21.9074 19 21.5184 19 22.9999C19 24.5925 20.1701 24.9886 21.037 26C21.037 26 20.8963 28.8932 20.5 29.5C20.1112 30.0954 17.6197 30.9464 15.5 34" stroke="#3E47DD" stroke-width="1.5" stroke-linecap="round" stroke-linejoin="round"/>
<path d="M24 27C24.8703 27.6594 25.7222 28.5 27.5 28.5C29.2778 28.5 30.5 26.6203 30.5 24.5462C30.5 22.777 30.5 20.6943 30.5 20.6943" stroke="#3E47DD" stroke-width="1.5" stroke-linecap="round" stroke-linejoin="round"/>
<path d="M26 28.5V30.5C26 30.5 29.3094 31.0985 31.5 34" stroke="#3E47DD" stroke-width="1.5" stroke-linecap="round" stroke-linejoin="round"/>
<path d="M47.6207 36.7304C47.7935 36.3976 47.552 36 47.177 36H41C40.4477 36 40 36.4477 40 37V45C40 45.5523 40.4477 46 41 46H47.177C47.552 46 47.7935 45.6024 47.6207 45.2696L45.6428 41.4609C45.4928 41.1719 45.4928 40.8281 45.6428 40.5391L47.6207 36.7304Z" fill="#262A98"/>
<path d="M0.379311 36.7304C0.206467 36.3976 0.448002 36 0.823047 36H7C7.55228 36 8 36.4477 8 37V45C8 45.5523 7.55228 46 7 46H0.823048C0.448003 46 0.206467 45.6024 0.379312 45.2696L2.35717 41.4609C2.5072 41.1719 2.5072 40.8281 2.35717 40.5391L0.379311 36.7304Z" fill="#262A98"/>
<rect x="5" y="38" width="38" height="10" rx="1" fill="#3E47DD"/>
<path d="M31 2.28571L24 0V16C26.1667 14.781 31 11.7857 31 9.5V2.28571Z" fill="#378517"/>
<path d="M17 2.28571L24 0V16C21.8333 14.781 17 11.7857 17 9.5V2.28571Z" fill="#67B92E"/>
<path d="M21 7.5L23 9.5L27 5.5" stroke="white" stroke-width="1.5" stroke-linecap="round" stroke-linejoin="round"/>
</svg>
