<svg width="32" height="32" viewBox="0 0 32 32" fill="none" xmlns="http://www.w3.org/2000/svg">
<path d="M1 20.5H4.5C5.18259 20.5 5.5 20.8568 5.5 21.5V29.5M8.5 28.5H11C11.6707 28.5 14.8764 31 18.5 31C22.1236 31 23.5 30 23.5 30L29.3628 26.3135C29.6551 26.1411 29.8668 25.8702 29.9549 25.556C30.0431 25.2417 30.001 24.9077 29.8372 24.6216C29.6732 24.3304 29.3956 24.1106 29.063 24.0085C28.7303 23.9064 28.3686 23.93 28.054 24.0744C26.1359 24.9415 22.4754 26.6026 21.8619 26.8608C21.0235 27.2154 18.8027 27.1768 17.4162 27.0574C16.3294 26.9283 15.2565 26.7103 14.2097 26.406M8.26854 22.5H11C12.4564 22.5 13.1508 22.6313 13.8889 23.05L16.5462 24.3685C16.9314 24.5874 17.3727 24.7031 17.8226 24.7031H20.6728C21.1239 24.7504 21.5369 24.9637 21.822 25.2966C21.822 25.2966 22.3633 26.2709 22.2376 26.6971M3.03704 23.5H2.5" stroke="#485885" stroke-width="1.5" strokeMiterlimit="10" stroke-linecap="round" stroke-linejoin="round"/>
<path d="M15.5713 20H19.1814C23.5008 20 27 15.7515 27 10.5062C27 5.26098 23.5008 1 19.1814 1H15.5713M15.5713 20C20.3053 20 24.143 15.7467 24.143 10.5C24.143 5.25329 20.3053 1 15.5713 1M15.5713 20C10.8374 20 7 15.7467 7 10.5C7 5.25329 10.8374 1 15.5713 1M11.4281 11.9615C11.9289 14.483 13.6952 16.3462 15.7973 16.3462C16.7794 16.3462 17.6882 15.9395 18.4289 15.249M11.4281 11.9615C11.3353 11.4944 11.286 11.0047 11.286 10.5C11.286 9.99536 11.3353 9.50563 11.4281 9.0385M11.4281 11.9615H15.9729M11.4281 11.9615H9.51781M11.4281 9.0385C11.9289 6.517 13.6952 4.65387 15.7973 4.65387C16.4628 4.65387 17.0947 4.84062 17.6634 5.17589C17.8829 5.30528 18.0929 5.4568 18.2919 5.62823M11.4281 9.0385H15.9551M11.4281 9.0385L9.5 9.0385" stroke="#485885" stroke-width="1.5" stroke-linecap="round" stroke-linejoin="round"/>
</svg>
