<svg id="logo" width="74" height="64" viewBox="0 0 74 64" fill="currentColor" xmlns="http://www.w3.org/2000/svg">
	<path d="M46.8255 19.2104H53.7202V20.1578L51.5623 20.6841V30.2631C51.615 33.1578 53.2992 34.3157 55.3518 34.3683C57.1939 34.421 59.615 33.6841 59.615 29.5789V20.6315L57.8255 20.1578V19.2104H62.6676V20.1578L60.8781 20.6315V29.5262C60.8781 33.1578 59.1413 35.5789 55.036 35.5789C51.7728 35.5789 48.4571 33.842 48.4571 29.842V20.6315L46.7202 20.1578L46.8255 19.2104Z" fill="currentColor"/>
	<path d="M64.7202 31.0526C64.7202 32.6842 66.2991 34.4736 68.457 34.4736C69.6675 34.4736 71.2991 33.7894 71.4044 32.1579C71.6675 28 63.878 28.3158 63.7202 23.8421C63.6149 20.5263 65.878 19.1052 68.0886 19.1052C69.4044 19.1052 70.7201 19.5263 71.457 20.2631L71.9307 19.3158H72.9307V23.5789H71.7728C71.7728 21.5789 69.9307 20.2631 68.2991 20.2631C67.7202 20.2105 67.1412 20.421 66.6675 20.8421C66.2465 21.2631 65.9833 21.7894 65.9307 22.421C65.7202 26 73.4044 25.5789 73.878 30.5789C74.1412 33.3684 72.0886 35.7368 68.6149 35.7368C67.3517 35.7894 66.1412 35.3684 65.1938 34.5789L64.6149 35.5263H63.5623V31.1052H64.7202V31.0526Z" fill="currentColor"/>
	<path d="M2.61489 34V23.0526V20.4737L0.878052 20V19.0526H12.457V22.5263H11.6149L11.0359 20.3684H5.50963V26.0526H8.50963L8.98331 24.1579H10.0886V29.2105H8.98331L8.50963 27.3684H5.50963V33.8421L7.87805 34.3158V35.3158H0.878052V34.3158L2.61489 33.8421" fill="currentColor"/>
	<path d="M45.2465 24H44.036C43.5623 21.7895 41.6149 20.2105 39.3518 20.2105C35.6149 20.2105 33.9307 24.0526 33.9307 27.3158C33.9307 31.1052 35.9834 34.3158 40.0886 34.3684C42.036 34.421 43.615 33.5789 44.9834 31.5789H45.1939L46.0886 32.4737V32.6842C43.5097 35.2631 41.2465 35.5263 39.4044 35.5263C33.5623 35.5263 30.7202 31.5789 30.7202 27.3158C30.7202 23.0526 33.8781 19.0526 38.9834 19.0526C40.7202 19.0526 42.4044 19.7368 43.6676 20.8947L44.1939 19.2105H45.2465V24Z" fill="currentColor"/>
	<path d="M46.4571 43.2632C46.1413 44 45.5097 44.5263 44.7729 44.7895C44.036 45.0526 43.2466 45.0526 42.5624 44.7895C41.8255 44.5263 41.1939 44 40.8781 43.2632C40.7203 42.8421 40.615 42.4211 40.615 41.9474C40.615 41.4737 40.7203 41.0526 40.8781 40.6316C41.036 40.2632 41.2992 39.9474 41.5624 39.6842C41.8255 39.4211 42.1939 39.2105 42.5624 39.1053C43.2992 38.8421 44.0887 38.8421 44.7729 39.1053C45.1413 39.2105 45.4571 39.4211 45.7729 39.6842C46.0887 39.9474 46.2992 40.2632 46.4571 40.6316C46.615 41.0526 46.7202 41.4737 46.7202 41.9474C46.7202 42.4211 46.6676 42.8947 46.4571 43.2632ZM44.3518 43.7895C44.5624 43.6842 44.7729 43.579 44.9308 43.4211C45.0887 43.2632 45.2466 43.0526 45.3518 42.7895C45.5624 42.2632 45.5624 41.6842 45.3518 41.2105C45.2466 41 45.1413 40.7895 44.9308 40.579C44.7729 40.4211 44.5624 40.2632 44.3518 40.2105C43.8781 40 43.4045 40 42.9308 40.2105C42.7203 40.3158 42.5097 40.4211 42.3518 40.579C42.1939 40.7368 42.036 40.9474 41.9308 41.2105C41.7203 41.7368 41.7203 42.3158 41.9308 42.7895C42.036 43 42.1413 43.2105 42.3518 43.4211C42.5097 43.579 42.7203 43.7368 42.9308 43.7895C43.4045 43.9474 43.9308 43.9474 44.3518 43.7895Z" fill="currentColor"/>
	<path d="M51.7201 44.8421V41.2632C51.7727 40.8948 51.6148 40.579 51.4043 40.3158C51.1411 40.0527 50.8253 39.9474 50.4569 40C50.2464 40 50.0358 40.0527 49.8779 40.1053C49.7201 40.2105 49.5622 40.3158 49.4043 40.4737C49.2464 40.6316 49.1411 40.8421 49.0885 41.0527C48.9832 41.3158 48.9832 41.5263 48.9832 41.7895V44.8421H47.8253V39.1053H48.9832V40.0527C49.1937 39.7369 49.4569 39.4211 49.7727 39.2632C50.1411 39.0527 50.5095 38.9474 50.9306 38.9474C51.1937 38.9474 51.4569 39 51.7201 39.1053C52.1937 39.2632 52.6148 39.6316 52.7727 40.1053C52.8779 40.3684 52.9306 40.6842 52.9306 40.9474V44.8421H51.7201Z" fill="currentColor"/>
	<path d="M58.9307 37.7894V39.1052H57.5623V37.7894H58.9307ZM58.8254 39.9473V44.8947H57.6675V39.9473H58.8254Z" fill="currentColor"/>
	<path d="M55.7728 37.7894V44.8421H54.6149V37.7894H55.7728Z" fill="currentColor"/>
	<path d="M64.6148 44.8421V41.2632C64.6675 40.8948 64.5096 40.579 64.299 40.3158C64.0359 40.0527 63.7201 39.9474 63.3517 40C63.1411 40 62.9306 40.0527 62.7727 40.1053C62.6148 40.2105 62.4569 40.3158 62.299 40.4737C62.1411 40.6316 62.0359 40.8421 61.9832 41.0527C61.878 41.2632 61.878 41.5263 61.878 41.7895V44.8421H60.7201V39.1053H61.878V40.0527C62.0885 39.7369 62.3517 39.4211 62.6675 39.2632C63.0359 39.0527 63.4043 38.9474 63.8254 38.9474C64.0885 38.9474 64.3517 39 64.6148 39.1053C65.0885 39.2632 65.5096 39.6316 65.6675 40.1053C65.7727 40.3684 65.8254 40.6842 65.8254 40.9474V44.8421H64.6148Z" fill="currentColor"/>
	<path d="M68.3519 42.9474C68.4571 43.1579 68.5624 43.3158 68.7203 43.5263C68.8782 43.6842 69.0361 43.7895 69.2466 43.8948C69.4571 44 69.7203 44 69.9308 44C70.1413 44 70.3519 43.9474 70.5624 43.8948C70.7203 43.8421 70.8782 43.7369 71.0361 43.6316C71.194 43.5263 71.2992 43.4211 71.4045 43.2632C71.5098 43.1053 71.615 42.9474 71.6677 42.7895L72.5624 43.3158C72.3519 43.8421 71.9835 44.2632 71.5098 44.579C71.0361 44.8948 70.4571 45 69.8782 45C69.5098 45 69.1413 44.9474 68.7729 44.7895C68.4571 44.6316 68.1414 44.4211 67.8782 44.1579C67.615 43.8948 67.4045 43.579 67.2466 43.2105C66.9308 42.4211 66.9308 41.5263 67.2466 40.7369C67.4045 40.3684 67.615 40.0527 67.8782 39.7895C68.1414 39.5263 68.4571 39.3158 68.8256 39.1579C69.194 39 69.5624 38.9474 69.9835 38.9474C70.3519 38.9474 70.7729 39 71.0887 39.1579C71.4045 39.3158 71.7203 39.4737 71.9834 39.7369C72.2466 40 72.4045 40.3158 72.5624 40.6316C72.7203 41 72.7729 41.3684 72.7729 41.7895V42.2105H68.194C68.194 42.4737 68.2466 42.6842 68.3519 42.9474ZM69.3519 40C69.1413 40.0527 68.9834 40.1579 68.8256 40.3158C68.6677 40.4211 68.5624 40.579 68.4571 40.7895C68.3519 40.9474 68.2466 41.1579 68.194 41.3684H71.615C71.615 41.1579 71.5098 40.9474 71.4045 40.7369C71.2992 40.579 71.194 40.4211 71.0361 40.2632C70.8782 40.1579 70.7203 40.0527 70.5098 40C70.2992 39.9474 70.1413 39.8948 69.9308 39.8948C69.7203 39.8948 69.5098 39.8948 69.3519 40Z" fill="currentColor"/>
	<path fill-rule="evenodd" clip-rule="evenodd" d="M12.457 27.4737C12.457 22.8421 16.2465 19.0526 20.8781 19.0526C25.5097 19.0526 29.2991 22.8421 29.2991 27.4737C29.2991 32.1052 25.5097 35.8947 20.8781 35.8947C16.2465 35.8947 12.457 32.1052 12.457 27.4737Z" fill="white"/>
	<path fill-rule="evenodd" clip-rule="evenodd" d="M20.9833 27.6316L21.2465 27.579L21.3518 27.3684V27.2632L21.457 27.1053L21.3518 26.9474H21.2465L21.1412 27.0527L20.9307 27.1579L20.9833 27.2632V27.3684L20.8254 27.5263L20.9833 27.6316Z" fill="currentColor"/>
	<path fill-rule="evenodd" clip-rule="evenodd" d="M20.1413 21.3157C20.2992 21.3157 20.5097 21.2104 20.6149 21.0526C20.5097 21.1052 19.9834 20.9999 20.1413 21.3157Z" fill="currentColor"/>
	<path fill-rule="evenodd" clip-rule="evenodd" d="M20.6149 21.3684L20.5096 21.421L20.457 21.3684L20.4043 21.421C20.3517 21.421 20.2465 21.421 20.1938 21.421L20.1412 21.4737H20.0359L20.1412 21.421C20.0886 21.421 19.9833 21.421 19.9307 21.421C19.9307 21.4737 19.9307 21.5263 19.9307 21.5789L19.9833 21.6316V21.6842L20.0359 21.7368C20.0886 21.7368 20.1938 21.6842 20.2465 21.6842C20.4043 21.7895 20.9833 21.6316 21.1938 21.7368L21.2465 21.6842C21.2991 21.5263 21.1412 21.421 21.0886 21.3158C20.878 21.2631 20.6149 21.0526 20.6149 21.3684Z" fill="currentColor"/>
	<path fill-rule="evenodd" clip-rule="evenodd" d="M19.5623 21.1052L19.5096 21.1578H19.6149C19.6675 21.1052 19.7202 21.0526 19.7728 21.0526H19.8254L19.7728 21.1052V21.1578H19.6675C19.7202 21.1578 19.7728 21.1578 19.8254 21.1578V21.1052L19.8781 21.0526H19.8254H19.7728H19.7202L19.6675 20.9999L19.6149 21.0526L19.5623 21.1052Z" fill="currentColor"/>
	<path fill-rule="evenodd" clip-rule="evenodd" d="M22.2465 22.1578C22.1938 22.1578 22.1412 22.1578 22.1412 22.1578L22.0886 21.8946V21.842C21.9833 21.8946 21.878 21.842 21.7728 21.7894V21.842L21.7201 21.8946C21.5096 21.7894 21.5096 21.842 21.3517 21.8946C21.2991 21.8946 21.2465 21.9473 21.1938 21.9473V21.9999C21.0359 22.1578 20.9307 21.9999 20.8254 22.0525L20.7728 22.1052L20.8254 22.1578L20.7201 22.2104L20.7728 22.2631L20.5622 22.3683H20.6149C20.6149 22.4209 20.6675 22.4209 20.7201 22.4736C20.7728 22.5262 20.7201 22.6315 20.7201 22.6841C20.6675 22.8946 20.457 23.1052 20.457 23.2104H20.5622L20.457 23.3157H20.2991L20.2465 23.5262L20.3517 23.5788C20.2465 23.7894 20.1412 23.7367 19.9833 23.8946C19.9307 23.9999 19.8254 24.1578 19.7201 24.5788C19.6675 24.7367 19.6675 24.842 19.7201 24.9473C19.7201 25.0525 19.7728 25.1052 19.7728 25.2631L19.878 25.3157H19.9833C19.9833 25.2631 20.1412 25.1052 20.2465 24.9473C20.4043 24.7367 20.5622 24.5262 20.6149 24.5262C20.7201 24.5262 20.8254 24.5262 20.9307 24.5788C21.0359 24.5262 21.1412 24.3683 21.2465 24.2631L21.2991 24.3157C21.457 24.3157 21.6675 24.1578 21.7728 24.0525C21.7201 24.0525 21.7201 23.9999 21.6675 23.9473V23.8946L21.7201 23.7894V23.8946L21.7728 23.9473L21.8254 23.842C21.7728 23.6841 21.8254 23.5788 21.878 23.4209L21.9833 23.3157L22.0359 23.0525L21.9833 22.9473L22.1412 22.842C22.0886 22.7894 22.0886 22.7367 22.0886 22.6841C22.0886 22.5262 22.2465 22.3157 22.2991 22.2104L22.2465 22.1578Z" fill="currentColor"/>
	<path fill-rule="evenodd" clip-rule="evenodd" d="M21.2991 25.2105H21.4044L21.5096 25.1052L21.6149 25V24.9473L21.5623 24.7894H21.5096H21.3517L21.2991 24.7368L21.1938 24.7894V24.8947V24.9473V25V25.1579L21.2991 25.2105Z" fill="currentColor"/>
	<path fill-rule="evenodd" clip-rule="evenodd" d="M21.615 28H21.8255H22.036L22.1413 27.8948L22.2465 27.7369V27.579L22.0886 27.3684L22.036 27.2632L21.9834 27.1579L21.9308 26.8948L21.8255 26.7895L21.9308 26.579L21.7202 26.4737L21.8255 26.3158L21.7202 26.2632H21.6676L21.5623 26.4211L21.5097 26.6842L21.5623 26.8948L21.615 27.1053L21.6676 27.2632H21.7202L21.615 27.3684L21.5623 27.579V27.7369L21.5097 27.8421L21.3518 27.9474L21.4044 28H21.615Z" fill="currentColor"/>
	<path fill-rule="evenodd" clip-rule="evenodd" d="M17.7728 22.7894C17.8254 22.7368 17.8254 22.7368 17.878 22.6842C17.9833 22.5263 17.9833 22.421 18.0886 22.2631C17.9307 22.3158 17.8254 22.3684 17.6675 22.421C17.6675 22.4736 17.6149 22.5263 17.6149 22.5789L17.8254 22.6315L17.7728 22.7368V22.7894Z" fill="currentColor"/>
	<path fill-rule="evenodd" clip-rule="evenodd" d="M19.8254 21.2104C19.7728 21.2631 19.7728 21.3157 19.7201 21.3683H19.6149C19.457 21.4736 19.6149 21.6841 19.6675 21.7894L19.7728 21.7367C19.7728 21.6841 19.7728 21.6315 19.7728 21.5788L19.7201 21.5262L19.7728 21.3683L19.878 21.3157L19.9307 21.1052C19.878 21.1578 19.878 21.1578 19.8254 21.2104Z" fill="currentColor"/>
	<path fill-rule="evenodd" clip-rule="evenodd" d="M17.1412 26C17.2465 26 17.2991 25.9473 17.3517 25.8421L17.2991 25.7894C17.2465 25.7894 17.0359 25.8947 16.8781 26H17.1412Z" fill="currentColor"/>
	<path fill-rule="evenodd" clip-rule="evenodd" d="M22.036 19.2105L22.4044 19.3158L22.7202 19.3684L23.036 19.4737L23.2465 19.6316L23.6149 19.8421V19.8947L23.9833 20.1579L24.2991 20.2632L24.3518 20.3158L24.5097 20.4737L24.457 20.6316L24.6676 20.8421L24.8781 21.1579L24.7202 21.1053L24.6149 21H24.5097V21.1579L24.6676 21.3684L24.8781 21.6842L25.1412 22L25.2465 22.2105L25.3518 22.1579L25.457 22.2632H25.3518L25.4044 22.4737H25.3518H25.2991L25.6149 22.7368L25.6676 22.7895L25.7728 22.8421L25.9833 23.1053L25.8781 23L25.8254 22.9474H25.7728L25.7202 22.8947L25.6149 22.8421L25.1939 22.6316L25.2465 22.6842L25.2991 22.7895L25.3518 22.8421L25.457 22.9474L25.8254 23.2105V23.2632L25.457 23.3158L25.4044 23.3684L25.5623 23.5789L25.3518 23.8947L25.2465 23.9474L25.1939 24.1053L25.1412 23.9474V23.8947H24.9307V23.9474L25.036 24.1053L25.0886 24.1579V24.2632V24.4737L25.1412 24.6316L24.9307 24.7368L25.0886 24.8947L24.8781 24.8421H24.8254L24.7202 24.6842L24.5097 24.5263H24.7202L24.9307 24.4737L24.9833 24.3158L24.8254 24.1053H24.7202L24.5623 24H24.3518L24.2465 24.0526H24.1939L24.0886 23.9474L24.036 23.8947H23.8254L23.7728 23.9474L23.7202 24L23.5623 24.1053L23.5097 24.3158L23.4044 24.5263L23.2991 24.7895L23.2465 25V25.0526L23.1939 25.2632L23.0886 25.4211L22.8781 25.6316H22.8254L22.6676 25.8421V26V26.1053V26.3684L22.8254 26.4737L22.9833 26.3684L23.1412 26.3158L23.2465 26.5263L23.3518 26.7368L23.457 27.0526H23.6149L23.6676 26.8947L23.8254 26.7895V26.7368V26.6316V26.4211L23.8781 26.3684L23.9307 26.2632L23.8781 26L23.7728 25.5789L23.8781 25.3684L23.9833 25.1579V24.9474V24.8947H24.1939V24.9474V25.1053L24.0886 25.3158V25.5263V25.5789L24.2465 25.8947L24.457 25.9474L24.6676 25.8947L24.7728 25.8421L24.8254 25.8947H24.7202H24.6149L24.5623 25.9474H24.5097L24.4044 26V26.1053L24.5097 26.1579V26.1053V26.2105L24.5623 26.3158L24.457 26.3684L24.3518 26.2105L24.2991 26.3158V26.4211L24.3518 26.5789L24.4044 26.7368L24.2991 26.8421V26.8947L24.1939 26.9474L24.1412 26.8421L23.9307 27L23.8254 27.1053L23.6149 27L23.3518 27.3684L23.2465 27.2632V27.1053V26.8947V26.6316H23.1939L23.036 26.8421V27.1053L23.0886 27.2632L23.1412 27.3684L22.9833 27.4211H22.7728L22.6149 27.6316L22.5097 27.8421L22.3518 27.9474L22.1939 28.0526L22.036 28.1579L21.8254 28.2105L21.7728 28.2632V28.3158L21.5623 28.2632L21.4044 28.3684L21.5097 28.4737H21.5623L21.7202 28.7368V29L21.6676 29.2632L21.457 29.3158L21.2465 29.2632H21.1939H20.9307L20.7202 29.2105L20.6149 29.3158L20.5623 29.3684L20.6149 29.5789L20.5623 29.7895L20.457 30.0526L20.5097 30.2105V30.4211L20.6676 30.4737L20.7728 30.5789L20.8254 30.6316H20.9833H21.0886H21.4044L21.5097 30.5789L21.6149 30.5263L21.7728 30.4211L21.8781 30.2105L22.036 30L22.2465 29.8421L22.4044 29.6842V29.5789L22.5623 29.5263H22.8254L22.9833 29.4737L23.0886 29.4211L23.1412 29.3684L23.1939 29.4211L23.3518 29.5263L23.457 29.6842L23.5623 29.8421L23.7728 30L23.9307 30.1053L24.0886 30.1579L24.1412 30.3158L24.0886 30.5263L24.2465 30.3158L24.1939 30.1579L24.3518 30.1053L24.457 30.0526L24.2465 29.9474L24.1412 29.8947V29.8421L24.0886 29.7895H23.9833L23.8254 29.6842L23.7202 29.5263V29.4737L23.6149 29.3158V29.2105L23.7728 29.1053L23.8254 29.1579L23.8781 29.2632L24.036 29.3684L24.1939 29.4737H24.2465L24.3518 29.5263L24.5097 29.6316L24.6149 29.7368L24.6676 29.9474L24.7728 30.0526L24.9307 30.2632V30.3684L24.9833 30.5789H25.1412V30.4737L25.1939 30.2632L25.2991 30.1579L25.1412 30.1053V30L25.0886 29.8421L25.2465 29.7368L25.4044 29.6842H25.5623L25.7202 29.5263V29.4737V29.4211L25.6149 29.2632L25.6676 29.0526V28.7895L25.7728 28.5263V28.4737V28.4211H25.8781L25.9833 28.1579L25.9307 28.2632L25.8781 28.3158L25.9833 28.3684L26.0886 28.4211L26.1939 28.2105V28.1579V28.1053L26.0886 27.9474L26.1939 27.7895L26.2991 27.6316L26.3518 27.6842V27.7895L26.2991 28L26.4044 28.1053L26.6149 28.2105H26.7728L26.8254 28.3158V28.4211L26.7728 28.5789L26.6149 28.6842H26.5097H26.2991L26.1412 28.7368L25.9833 28.8421V29.2105L25.8254 29.3158L25.7202 29.5263L25.5623 29.5789L25.457 29.7368L25.5097 29.8947L25.6149 29.9474L25.7202 30.1053H25.8781L26.0886 29.9474L26.2991 29.8947L26.457 29.8421L26.6149 29.6842H26.6676L26.7202 29.7368L26.7728 29.9474V30.0526V30.2105V30.4211L26.7202 30.5263L26.6676 30.6316C26.6149 30.6316 26.5623 30.6842 26.5097 30.7368L26.3518 30.6842C26.1412 31.0526 25.7202 30.8947 25.6149 31.0526C25.3518 30.8947 24.7202 31 24.8254 31.4737L24.7202 31.5789L24.457 31.5263L24.3518 31.5789C24.2465 31.5789 24.1412 31.5263 24.0886 31.4211C23.9307 31.3684 23.6676 31.4211 23.5623 31.3684L23.5097 31.2632H23.4044C23.4044 31.1579 23.5097 31.0526 23.5097 30.9474L23.3518 30.7895L23.4044 30.6316H23.2991L23.1939 30.5789C23.1412 30.5789 23.036 30.6316 22.9833 30.6316C22.8781 30.5789 22.6676 30.6316 22.5623 30.6316C22.3518 30.5263 21.6149 30.7895 21.4044 30.8947H21.3518L21.2991 30.8421C21.1412 30.8421 21.036 30.8421 20.8781 30.7895L20.8254 30.6842C20.7202 30.7368 20.6149 30.9474 20.5623 31C20.3518 30.9474 20.1939 31.1053 20.036 31.2105C20.036 31.3158 19.9833 31.3684 19.9307 31.4737V31.5263C19.8781 31.6316 19.6149 31.6842 19.457 31.7368H19.4044C19.2991 31.7368 18.5097 32.3158 18.4044 32.5263V32.5789C18.457 32.6316 18.5097 32.6842 18.5097 32.7368C18.457 32.7895 18.4044 32.8947 18.4044 32.9474L18.457 33.0526C18.457 33.1053 18.2991 33.2105 18.2991 33.2632C18.2465 33.3158 18.1939 33.3158 18.1412 33.3158C18.1412 33.3684 18.1939 33.4211 18.1939 33.4737C18.0886 33.6842 18.3518 33.7895 18.457 33.8947V34C18.5623 34.0526 18.5623 34.1579 18.6149 34.2105C18.5623 34.2632 18.6676 34.2632 18.6149 34.3158L18.6676 34.4211C18.8254 34.4211 19.1412 34.8947 19.6149 34.8947C19.9307 34.8947 20.1939 34.9474 20.457 35C20.9307 35.0526 21.2465 34.8421 21.7202 34.9474L21.7728 35.0526C21.8781 35.1053 22.1939 35.0526 22.2991 35L22.3518 35.0526H22.457C22.5623 35.1579 22.0886 35.4211 22.1939 35.4737H22.2465L22.2991 35.5263L22.5623 35.5789L22.5097 35.6316C24.6676 35.1579 26.5623 33.8947 27.7728 32.1053C27.8254 32.0526 27.8254 31.9474 27.8781 31.8947C27.9307 31.8421 27.9307 31.7895 27.9307 31.7368C27.9307 31.7368 27.9307 31.6842 27.9833 31.6842V31.6316V31.5789L27.9307 31.6316L27.8781 31.7368L27.7728 31.8421C27.6676 31.9474 27.6149 32 27.5623 32.1053L27.4044 32.3158C27.3518 32.3684 27.3518 32.3158 27.2991 32.3158C27.457 32.1579 27.036 32.2105 27.036 32.2105C26.9307 32.1053 27.036 32.0526 26.8781 32L26.8254 31.9474C26.8781 31.7895 26.7728 31.6842 26.6676 31.6316C26.6676 31.5789 26.6149 31.5789 26.6149 31.5263C26.6149 31.4737 26.5623 31.4737 26.5623 31.4211H26.5097C26.457 31.3158 26.4044 31.1579 26.2991 31.1053L26.2465 30.9474C26.2991 31 26.3518 31.0526 26.4044 31.1053L26.457 31.0526L26.5097 30.7895L26.5623 31L26.7202 31.1579L26.8254 31.3158H26.9307L27.036 31.4211V31.5263L27.0886 31.5789V31.6316H27.1939L27.2991 31.7368V31.7895L27.4044 31.8947V32V32.1579V32.1053L27.6149 31.9474L27.7202 31.7895L27.7728 31.7368L27.9307 31.5263L28.036 31.2632L28.1412 31.0526L28.2465 30.7895L28.2991 30.7368L28.4044 30.4737L28.457 30.3158L28.5097 30.0526V30L28.5623 29.7368L28.6149 29.4737L28.5623 29.4211L28.457 29.4737H28.4044L28.3518 29.3158L28.2991 29.5789L28.2465 29.8421L28.1412 30H28.0886L28.036 29.9474L27.9833 30L27.9307 29.8947H27.8781L27.7728 29.7895L27.7202 29.7368V29.6842L27.8254 29.5263H27.8781L27.9833 29.5789L28.1412 29.4737L28.2465 29.3158L28.3518 29.2105H28.457L28.5097 29.0526L28.6149 28.9474V28.8947L28.7202 28.6316V28.5263L28.8254 28.3158L28.8781 28.3684V28.3158V28.2632L28.9307 28.3158L28.9833 28.3684L29.036 28.3158C29.0886 28 29.0886 27.6842 29.0886 27.3684C29.0886 23 25.7202 19.3684 21.457 19L22.036 19.2105Z" fill="currentColor"/>
	<path fill-rule="evenodd" clip-rule="evenodd" d="M16.8781 26.5263L16.8254 26.6842H16.9307C16.9307 26.7368 16.9833 26.8421 16.9833 26.8947C17.036 26.8947 17.1412 26.8421 17.1412 26.7895C17.1412 26.7368 17.1412 26.6316 17.0886 26.6316L17.1939 26.5263V26.421L17.2465 26.3684C17.2465 26.3158 17.1412 26.2105 17.0886 26.2105L17.1412 26.0526H16.9307C16.8255 26.1052 16.6676 26.1579 16.6676 26.2105C16.6149 26.421 16.8254 26.3684 16.8781 26.5263Z" fill="currentColor"/>
	<path fill-rule="evenodd" clip-rule="evenodd" d="M19.1939 20.9474C19.1939 20.8948 19.1413 20.8948 19.0886 20.8948C19.1413 20.8948 19.1939 20.8948 19.2465 20.8421C19.1939 20.8421 19.1939 20.7895 19.1939 20.7895C19.2465 20.7369 19.2992 20.6842 19.3518 20.6842C19.2992 20.6842 19.1939 20.6316 19.1939 20.579C19.1413 20.579 19.0887 20.579 19.036 20.579L18.9834 20.6316V20.579H18.8781C18.8255 20.6316 18.8255 20.6842 18.8255 20.7369L18.7202 20.7895L18.7729 20.6316H18.7202C18.615 20.6842 18.5623 20.7895 18.4044 20.7369C18.4571 20.8421 18.3518 20.8421 18.4571 21L18.4044 21.0527C18.4044 21.1053 18.3518 21.1053 18.3518 21.1579C18.4044 21.2632 18.5097 21.2106 18.5623 21.2106C18.615 21.1579 18.615 21.1053 18.6676 21.0527C18.9308 21.0527 19.036 21 19.1939 20.9474Z" fill="currentColor"/>
	<path fill-rule="evenodd" clip-rule="evenodd" d="M18.1412 22.6316L18.0885 22.7368L18.0359 22.7895C18.1938 22.8947 18.1938 23.1052 18.0885 23.2631C18.0885 23.421 18.1412 23.5789 18.1412 23.6842C18.1938 23.6316 18.2464 23.5263 18.2464 23.421H18.299V23.5263L18.4569 23.5789C18.5622 23.5263 18.5622 23.3684 18.5096 23.2631C18.5622 23.2631 18.6675 23.1052 18.7201 23.0526L18.7727 23.1052C18.7727 23.2105 18.7201 23.3158 18.7201 23.421C18.8254 23.3684 18.9306 23.3158 19.0359 23.2631C19.0359 23.1052 19.0885 22.9474 19.0885 22.7895C19.1412 22.7895 19.2464 22.7368 19.299 22.6842C19.299 22.6842 19.299 22.6316 19.3517 22.6316C19.3517 22.5263 19.4043 22.421 19.3517 22.3158C19.4569 22.1579 19.5096 22.1052 19.6148 22C19.6148 22 19.6148 21.9474 19.6148 21.8421C19.6148 21.7895 19.6148 21.7895 19.6148 21.7368C19.5096 21.5789 19.1938 21.6842 19.0885 21.7895H18.9833C19.0359 21.7368 18.878 21.7368 18.878 21.7895C18.878 21.7895 18.878 21.7895 18.878 21.8421C18.878 21.8947 18.9306 21.9474 18.9306 22L18.9833 22.0526C18.9833 22.1052 18.9833 22.1579 19.0359 22.1579C18.9306 22.2631 18.878 22.3684 18.7727 22.3684L18.8254 22.4737V22.5789C18.7201 22.5789 18.6675 22.6842 18.6148 22.6842H18.5096L18.4569 22.7895L18.2464 22.7368L18.299 22.6842V22.6316H18.1412Z" fill="currentColor"/>
	<path fill-rule="evenodd" clip-rule="evenodd" d="M20.0359 20.8947H19.9307L19.8781 20.9473C19.9833 20.9473 20.1412 20.8947 20.1938 20.842C20.1412 20.7368 20.0359 20.842 20.0359 20.8947Z" fill="currentColor"/>
	<path fill-rule="evenodd" clip-rule="evenodd" d="M19.2465 20.1578L19.1412 20.2105V20.2631C19.2465 20.2631 19.3518 20.421 19.4044 20.4736H19.5097C19.5623 20.421 19.6149 20.3684 19.7202 20.3157V20.2631V20.2105H19.6676H19.6149L19.2465 20.1578Z" fill="currentColor"/>
	<path fill-rule="evenodd" clip-rule="evenodd" d="M24.2465 21.0526L24.1413 21.1052H24.0886L24.1413 21.1578L24.2992 21.2104L24.2465 21.0526Z" fill="currentColor"/>
	<path fill-rule="evenodd" clip-rule="evenodd" d="M24.5623 22.7368L24.6149 22.7895L24.6676 22.8421V22.8947L24.7728 23.1053L24.8255 23.1579L25.036 23.2105L25.1412 23.1579L25.036 23.1053L24.8781 22.9474L24.7202 22.7895V22.6842L24.6676 22.579L24.6149 22.4211V22.3158L24.5097 22.1579L24.457 22.2105V22.3684L24.5097 22.579L24.5623 22.7368Z" fill="currentColor"/>
	<path fill-rule="evenodd" clip-rule="evenodd" d="M23.6675 20.0526L23.6149 20.1052L23.7201 20.2105H23.7728L23.878 20.2631V20.2105V20.1579H23.7728L23.6675 20.0526Z" fill="currentColor"/>
	<path fill-rule="evenodd" clip-rule="evenodd" d="M19.9307 20.3684C19.8781 20.3684 19.8254 20.3684 19.8254 20.421L19.9307 20.4737V20.5263C19.9833 20.5789 20.036 20.5789 20.0886 20.5789V20.4737C20.036 20.4737 19.9833 20.421 19.9307 20.3684Z" fill="currentColor"/>
	<path fill-rule="evenodd" clip-rule="evenodd" d="M13.1412 28.1579C13.1938 28.0526 13.0886 27.5789 13.0359 27.2631C12.9833 27.0526 12.9833 26.8947 12.9833 26.8947C13.0359 26.8421 12.8781 26.7368 12.8781 26.7368C12.8781 26.8421 12.9307 26.8947 12.9307 27C12.9307 27.0526 12.9307 27.2105 12.9307 27.3158C12.9307 27.3684 12.9307 27.3684 12.9833 27.421C12.9833 27.4737 13.0359 27.5789 13.0359 27.6842L13.0886 27.7894L13.0359 27.9473C13.0886 27.8947 13.1412 28.1579 13.1412 28.1579Z" fill="currentColor"/>
	<path fill-rule="evenodd" clip-rule="evenodd" d="M13.2991 28.842C13.3518 28.842 13.3518 28.8947 13.4044 28.8947V28.9999C13.457 28.9999 13.5097 29.1052 13.5097 29.1578V29.1052C13.4044 28.8947 13.4044 28.5262 13.2465 28.3683C13.2465 28.421 13.1939 28.5262 13.2465 28.5789H13.1939C13.1939 28.5262 13.1412 28.4736 13.1412 28.421V28.5262C13.2465 28.5262 13.2465 28.7368 13.2991 28.842Z" fill="currentColor"/>
	<path fill-rule="evenodd" clip-rule="evenodd" d="M23.0886 22.421L23.0359 22.3683H22.9307V22.5262H23.1412L23.0886 22.421Z" fill="currentColor"/>
	<path fill-rule="evenodd" clip-rule="evenodd" d="M15.615 26.1579L15.7203 26.2631H15.8255C15.9308 26.3684 16.036 26.3684 16.1413 26.3684C16.1413 26.2631 16.0887 26.1579 16.036 26.1052V26.0526H15.7729C15.8255 26.1052 15.8255 26.1052 15.8255 26.1579C15.8255 26.1052 15.6676 26.1052 15.615 26.1579Z" fill="currentColor"/>
	<path fill-rule="evenodd" clip-rule="evenodd" d="M20.3518 19.0274C15.9307 19.2906 12.457 22.9748 12.457 27.4485C12.457 30.6064 14.1939 33.3432 16.7202 34.7642C16.7202 34.7642 16.7202 34.7642 16.7202 34.7116C16.7202 34.659 16.6149 34.5537 16.6149 34.5537V34.5011C16.2991 34.2906 16.6676 34.1327 16.7202 33.8695C16.6149 33.659 15.9833 33.1853 15.9833 33.1853C15.6149 33.0274 15.2991 32.8169 15.036 32.6064C14.9307 32.5537 14.8781 32.4485 14.7728 32.3958C14.7202 32.4485 14.6676 32.4485 14.6676 32.4485V32.3432L14.6149 32.2906C14.5623 32.2379 14.457 32.1853 14.4044 32.1853C14.3518 32.1853 14.4044 32.08 14.4044 32.1327V32.08C14.3518 32.0274 14.2991 31.8695 14.1939 31.659C14.036 31.3432 13.7728 30.9221 13.6149 30.9748C13.5623 30.9221 13.5623 30.8695 13.5623 30.8169L13.5097 30.7642C13.5097 30.7116 13.5097 30.7116 13.5097 30.659C13.5097 30.6064 13.457 30.6064 13.457 30.5537C13.3518 30.3958 13.0886 29.8169 12.8781 29.4485C12.7728 29.2906 12.7202 29.1853 12.7202 29.1853V29.2906C12.7202 29.1327 12.6676 28.7642 12.6149 28.4485C12.6149 28.3432 12.5623 28.2379 12.5623 28.1853C12.7202 27.9748 12.6676 27.7116 12.6149 27.4485C12.6149 27.3958 12.6149 27.3432 12.5623 27.2906C12.5623 27.2379 12.6676 27.08 12.7202 27.08C12.7202 26.9748 12.8255 26.9748 12.8255 26.8695L12.7728 26.7642C12.8255 26.659 12.7728 26.5011 12.7728 26.3958C12.7202 26.4485 12.7202 26.3958 12.6676 26.3958C12.6676 26.3432 12.7202 26.2906 12.7202 26.2379C12.7728 26.0274 12.7728 25.7642 12.8255 25.5537C12.8781 25.3958 12.9307 25.2906 12.9833 25.1853C13.036 25.1327 13.036 25.08 13.036 25.0274C13.036 24.9748 13.036 24.9748 13.036 24.9221L13.1412 24.8169C13.1939 24.8169 13.1939 24.8695 13.2465 24.9221C13.2465 24.9748 13.2465 25.08 13.1939 25.1853C13.1939 25.3432 13.1939 25.5011 13.1939 25.6064H13.2465C13.2465 25.659 13.2991 25.9748 13.2991 26.0274C13.3518 26.08 13.4044 26.1327 13.4044 26.2379C13.3518 26.4485 13.1939 26.7642 13.1412 27.0274L13.1939 27.1327C13.4044 26.9221 13.3518 26.5011 13.5623 26.2906H13.6676C13.8254 26.3958 13.9833 26.3432 14.1412 26.5011C14.1939 26.5011 14.2991 26.4485 14.2991 26.3958C14.2991 26.3432 14.2991 26.3432 14.2991 26.2906C14.2991 26.2379 14.3518 26.1327 14.4044 26.08C14.457 26.0274 14.5097 25.9748 14.5623 25.9748C14.5097 26.0274 14.457 26.1327 14.457 26.2379C14.4044 26.2379 14.4044 26.2906 14.3518 26.2906L14.5097 26.2379C14.5097 26.1853 14.5623 26.08 14.6149 26.0274V26.1327L14.6676 26.1853C14.9307 26.0274 14.7728 26.0274 14.9833 26.2379V26.1853V26.2906C15.036 26.3432 15.0886 26.3958 15.1412 26.3432C15.1939 26.2906 15.1412 26.2906 15.0886 26.3432C15.2465 26.1327 15.1412 26.2379 15.4044 26.1853C15.457 26.1853 15.7202 26.3432 15.7202 26.3958C15.7202 26.3958 15.7728 26.3958 15.7728 26.4485H16.036V26.3432C16.0886 26.2906 16.1939 26.1327 16.1939 26.08L16.3518 26.1327L16.4044 25.9748L16.2991 25.8169L15.7728 25.7116C15.8781 25.659 16.0886 25.6064 16.1939 25.6064L16.2465 25.659H16.457C16.6149 25.8169 16.7202 25.9748 16.9307 26.08C17.036 26.08 17.0886 26.08 17.1939 26.08L17.2991 26.1853C17.4044 26.1327 17.457 26.0274 17.5623 25.9221L17.5097 25.8169L17.5623 25.2379C17.5623 25.1327 17.5097 25.08 17.5097 24.9748C17.5097 24.9748 17.5097 24.9748 17.5097 24.9221C17.5097 24.659 17.7728 24.3958 17.8255 24.08L17.9307 23.9748C17.7728 23.9748 17.6676 24.08 17.5097 24.08C17.5097 24.0274 17.5097 23.9748 17.5097 23.9221C17.5097 23.8695 17.5097 23.8169 17.5623 23.8169L17.8781 23.5537C17.8254 23.5011 17.8781 23.3432 17.9307 23.2379L17.8255 23.08V22.9221C17.5623 22.9221 17.3518 23.2379 17.0886 23.3432L17.036 23.5011C16.8781 23.7116 16.6149 23.659 16.457 23.659C16.4044 23.7642 16.2991 23.8695 16.1939 23.9748C16.036 23.9748 16.036 23.9748 15.9833 23.9748L15.9307 23.8695C16.0886 23.7116 16.0886 23.5537 16.3518 23.3958L16.4044 23.2379L16.3518 23.08C16.4044 22.9221 16.457 22.8169 16.457 22.659C16.5097 22.6064 16.5097 22.5011 16.5097 22.3958C16.6149 22.3432 16.7202 22.2906 16.7728 22.1853V22.1327C16.8781 22.0274 17.4044 21.9748 17.5623 22.0274L17.6149 21.9748L17.7202 22.0274V22.08L17.8781 22.1327C17.9833 22.08 18.1412 22.0274 18.2465 22.0274V22.1853L18.4044 22.2379C18.5097 22.1853 18.6149 22.1853 18.7202 22.1327L18.7728 22.0274V21.9221C18.6676 21.9748 18.5623 21.9748 18.5097 21.9748L18.4044 21.9221C18.457 21.9221 18.457 21.8695 18.5097 21.8695C18.5623 21.8169 18.6149 21.8169 18.6676 21.7642L18.6149 21.7116C18.7728 21.6064 18.9307 21.5011 19.0886 21.3958C18.9833 21.3958 18.8781 21.3958 18.7728 21.4485L18.6676 21.5537C18.6149 21.6064 18.4044 21.6064 18.3518 21.5537L18.5097 21.5011H18.5623L18.7202 21.3958C18.5623 21.3958 18.457 21.3432 18.457 21.3432L18.3518 21.3958L18.2465 21.3432C18.2465 21.2379 18.3518 21.1853 18.3518 21.08C18.3518 21.08 18.3518 21.08 18.3518 21.0274L18.2465 20.9748L18.3518 20.8695C18.3518 20.8169 18.3518 20.7642 18.3518 20.7116L18.457 20.659H18.5623C18.6149 20.5537 18.7202 20.4485 18.8255 20.3958V20.3432L18.9307 20.2906L18.8781 20.2379L19.036 20.1853V20.1327L19.1412 20.08C19.0886 19.9221 19.1939 19.8695 19.1939 19.8169C19.6149 19.7116 19.9307 19.5011 20.2991 19.5011V19.4485C20.3518 19.4485 20.5097 19.2906 20.5097 19.2379C20.2991 19.2379 20.2465 19.1853 20.2465 19.1853L20.3518 19.0274Z" fill="currentColor"/>
	<path fill-rule="evenodd" clip-rule="evenodd" d="M23.8781 21.1578V21.263L23.9833 21.3157L24.1412 21.3683L24.1938 21.263L24.0886 21.2104L23.8781 21.1578Z" fill="currentColor"/>
	<path fill-rule="evenodd" clip-rule="evenodd" d="M23.0885 30.2632L23.1938 30.2105L23.2464 29.9474L23.1411 29.8421L23.0885 29.8947V30.0526V30.2632Z" fill="currentColor"/>
	<path fill-rule="evenodd" clip-rule="evenodd" d="M19.2465 21.3157L19.1939 21.3684L19.0886 21.421L19.1939 21.3684L19.2465 21.421L19.2992 21.4736L19.3518 21.421L19.4044 21.3684L19.3518 21.3157H19.2465Z" fill="currentColor"/>
	<path fill-rule="evenodd" clip-rule="evenodd" d="M18.8781 21.6841V21.7367H18.9833L19.1938 21.6315L19.2991 21.5788H19.3517L19.2465 21.5262L19.1412 21.4736V21.5262H18.9833L18.9307 21.5788L18.8781 21.6841Z" fill="currentColor"/>
	<path fill-rule="evenodd" clip-rule="evenodd" d="M19.2465 21.2104L19.2991 21.2631L19.4044 21.2104L19.3517 21.1052C19.2991 21.1052 19.1938 21.1578 19.1412 21.1578L19.1938 21.1052L19.0359 21.1578C19.0359 21.2104 18.9307 21.2631 18.8781 21.2631C18.9307 21.3157 18.9833 21.3157 19.0359 21.3157C19.0886 21.3157 19.1938 21.2631 19.2465 21.2104Z" fill="currentColor"/>
	<path fill-rule="evenodd" clip-rule="evenodd" d="M25.4044 30.5789L25.5622 30.5263L25.457 30.4736H25.4044L25.2465 30.5263L25.4044 30.5789Z" fill="currentColor"/>
	<path fill-rule="evenodd" clip-rule="evenodd" d="M22.9307 22.7368L23.0359 22.8421L23.1412 23L23.2465 23.0526V22.8947V22.7894L23.1938 22.6842L23.1412 22.6316L22.9833 22.5789L22.8781 22.6316L22.9307 22.7368Z" fill="currentColor"/>
	<path fill-rule="evenodd" clip-rule="evenodd" d="M23.878 30.5788H23.9306L24.0359 30.4736L23.9306 30.3157L23.8254 30.3683H23.7727L23.6675 30.4736L23.8254 30.5788H23.878Z" fill="currentColor"/>
	<path fill-rule="evenodd" clip-rule="evenodd" d="M23.1938 29.5263L23.0885 29.5789V29.6316L23.1411 29.7368L23.1938 29.5263Z" fill="currentColor"/>
</svg>
