<svg width="48" height="48" viewBox="0 0 48 48" fill="none" xmlns="http://www.w3.org/2000/svg">
<path d="M23.2559 34.5H26.3894C30.3176 34.5 33.5 30.6115 33.5 26C33.5 21.3885 30.3176 17.5 26.3894 17.5H23.2559" stroke="#3E47DD" stroke-width="1.5" strokeMiterlimit="10" stroke-linecap="round" stroke-linejoin="round"/>
<path d="M23 34.5C27.4183 34.5 30.5 30.6944 30.5 26C30.5 21.3056 27.4183 17.5 23 17.5C18.5817 17.5 15.5 21.3056 15.5 26C15.5 30.6944 18.5817 34.5 23 34.5Z" stroke="#3E47DD" stroke-width="1.5" strokeMiterlimit="10" stroke-linecap="round" stroke-linejoin="round"/>
<path d="M25.4578 22.2037C25.2886 22.0701 25.11 21.952 24.9233 21.8512C24.4397 21.5899 23.9024 21.4444 23.3364 21.4444C21.2176 21.4444 19.5 23.4841 19.5 26.0001C19.5 28.5162 21.2176 30.5559 23.3364 30.5559C24.1716 30.5559 24.9444 30.2389 25.5743 29.7009" stroke="#3E47DD" stroke-width="1.5" stroke-linecap="round" stroke-linejoin="round"/>
<path d="M23.7187 24.5L17.8781 24.5" stroke="#3E47DD" stroke-width="1.5" stroke-linecap="round" stroke-linejoin="round"/>
<path d="M23.7188 27.5L17.8781 27.5" stroke="#3E47DD" stroke-width="1.5" stroke-linecap="round" stroke-linejoin="round"/>
<path d="M35.6316 12C38.9359 15.0593 41 19.4069 41 24.2301C41 33.4919 33.3888 41 24 41C14.6112 41 7 33.4919 7 24.2301C7 19.4069 9.06409 15.0593 12.3684 12" stroke="#67B92E" stroke-width="3" stroke-linecap="round" stroke-linejoin="round"/>
<path d="M34.001 10.0003L39.002 10.0004C39.4474 10.0005 39.6705 10.539 39.3555 10.854L34.3546 15.855C34.0396 16.17 33.501 15.9469 33.501 15.5015L33.501 10.5003C33.501 10.2241 33.7248 10.0003 34.001 10.0003Z" fill="#67B92E"/>
<path d="M47.6207 36.7304C47.7935 36.3976 47.552 36 47.177 36H41C40.4477 36 40 36.4477 40 37V45C40 45.5523 40.4477 46 41 46H47.177C47.552 46 47.7935 45.6024 47.6207 45.2696L45.6428 41.4609C45.4928 41.1719 45.4928 40.8281 45.6428 40.5391L47.6207 36.7304Z" fill="#262A98"/>
<path d="M0.379311 36.7304C0.206467 36.3976 0.448002 36 0.823047 36H7C7.55228 36 8 36.4477 8 37V45C8 45.5523 7.55228 46 7 46H0.823048C0.448003 46 0.206467 45.6024 0.379312 45.2696L2.35717 41.4609C2.5072 41.1719 2.5072 40.8281 2.35717 40.5391L0.379311 36.7304Z" fill="#262A98"/>
<rect x="5" y="38" width="38" height="10" rx="1" fill="#3E47DD"/>
<path d="M31 2.28571L24 0V16C26.1667 14.781 31 11.7857 31 9.5V2.28571Z" fill="#378517"/>
<path d="M17 2.28571L24 0V16C21.8333 14.781 17 11.7857 17 9.5V2.28571Z" fill="#67B92E"/>
<path d="M21 7.5L23 9.5L27 5.5" stroke="white" stroke-width="1.5" stroke-linecap="round" stroke-linejoin="round"/>
</svg>
