<svg id="logo" width="113" height="18" viewBox="0 0 113 18" fill="currentColor" xmlns="http://www.w3.org/2000/svg">
<path fill-rule="evenodd" clip-rule="evenodd" d="M105.375 10.2317C105.375 9.75797 105.375 9.28429 105.513 8.95271C105.788 8.19481 106.293 7.67376 107.304 7.67376C108.406 7.67376 109.509 8.24218 109.509 11.9369C109.509 14.779 108.912 16.5317 107.304 16.5317C106.248 16.5317 105.65 15.9159 105.513 15.0632C105.467 14.7317 105.421 14.2106 105.421 13.7843V10.2317H105.375ZM105.375 0.615866L105.237 0.47376L100.781 1.08955V1.89481L101.562 2.03692C101.93 2.08429 102.067 2.32113 102.067 3.22113V17.1948L102.756 17.6211L103.951 16.8632C104.732 17.2895 105.788 17.6211 107.212 17.6211C110.382 17.6211 113 16.5317 113 11.4159C113 7.72113 111.071 5.9685 108.866 5.9685C107.488 5.9685 106.385 6.72639 105.375 7.53166V0.615866ZM93.2479 10.5159C93.2479 8.85797 93.6614 6.96323 95.0853 6.96323C96.4174 6.96323 96.6471 8.6685 96.6471 9.75797C96.6471 10.3738 96.4634 10.5159 95.9581 10.5159H93.2479ZM99.1276 13.8317C98.4845 15.1106 97.5199 15.8685 96.1878 15.8685C93.9829 15.8685 93.2479 14.0211 93.2479 11.6053H98.9439C99.7248 11.6053 100.138 11.3685 100.138 10.658C100.138 8.8106 99.4492 5.92113 95.1772 5.92113C91.2268 5.92113 89.7109 8.57376 89.7109 11.7474C89.7109 14.8264 90.9971 17.6211 95.1313 17.5738C97.7496 17.5738 99.1735 16.2474 99.9544 14.258L99.1276 13.8317ZM85.5768 4.97376C86.7711 4.97376 87.5979 4.07376 87.5979 2.98429C87.5979 1.89481 86.817 0.994813 85.5768 0.994813C84.3366 0.994813 83.5557 1.89481 83.5557 2.98429C83.5557 4.02639 84.3366 4.97376 85.5768 4.97376ZM84.015 15.3474C84.015 16.2948 83.8313 16.3896 82.591 16.4369V17.2896H88.7922V16.4369C87.552 16.3896 87.3683 16.2948 87.3683 15.3474V6.06323L87.2305 5.92113L82.7748 6.58429V7.38955L83.5557 7.48429C83.9231 7.53166 84.0609 7.72113 84.0609 8.62113L84.015 15.3474ZM77.4922 10.279C77.4922 9.09481 77.7219 8.57376 78.2272 8.57376C78.5947 8.57376 78.9162 8.76323 79.3756 9.04744C79.6512 9.23692 79.9727 9.42639 80.3861 9.42639C80.8455 9.42639 81.2589 9.18955 81.4886 8.85797C81.7183 8.52639 81.8561 8.05271 81.8561 7.57902C81.8561 6.58429 81.2589 5.9685 80.2943 5.9685C79.3756 5.9685 78.6406 6.58429 77.3544 7.95797L77.0788 5.9685L72.7609 6.63166V7.43692L73.5418 7.53166C73.9093 7.57902 74.0931 7.7685 74.0931 8.6685V15.3474C74.0931 16.2948 73.9093 16.3896 72.6691 16.4369V17.2896H79.3296V16.4369C77.6301 16.3422 77.4463 16.2948 77.4463 15.3474V10.279H77.4922ZM71.6126 7.34218V6.20534H69.3158V3.36323H68.0296L66.1004 6.20534H64.7223V7.34218H66.0085V14.6843C66.0085 16.7685 67.5244 17.6211 68.7646 17.6211C69.6833 17.6211 71.0154 17.1948 72.2557 16.3895L72.026 15.679C71.7044 15.8211 71.2451 15.9159 70.7857 15.9159C69.9589 15.9159 69.3618 15.3001 69.3618 13.8317V7.34218H71.6126ZM56.8215 10.5159C56.8215 8.85797 57.2349 6.96323 58.6589 6.96323C59.991 6.96323 60.2207 8.6685 60.2207 9.75797C60.2207 10.3738 60.037 10.5159 59.5317 10.5159H56.8215ZM62.7012 13.8317C62.0581 15.1106 61.0935 15.8685 59.7614 15.8685C57.5565 15.8685 56.8215 14.0211 56.8215 11.6053H62.5174C63.2983 11.6053 63.7118 11.3685 63.7118 10.658C63.7118 8.8106 63.0227 5.92113 58.7967 5.92113C54.8463 5.92113 53.3764 8.57376 53.3764 11.7474C53.3764 14.8264 54.6626 17.6211 58.7967 17.5738C61.415 17.5738 62.839 16.2474 63.6199 14.258L62.7012 13.8317ZM44.1894 10.2317C44.1894 9.75797 44.1894 9.28429 44.3272 8.95271C44.6028 8.19481 45.1081 7.67376 46.1187 7.67376C47.2211 7.67376 48.3235 8.24218 48.3235 11.9369C48.3235 14.779 47.7723 16.5317 46.1187 16.5317C45.0162 16.5317 44.465 15.9159 44.3272 15.0632C44.2813 14.7317 44.2353 14.2106 44.2353 13.7843V10.2317H44.1894ZM44.1894 0.615866L44.0516 0.47376L39.5959 1.08955V1.89481L40.3768 2.03692C40.7443 2.08429 40.928 2.32113 40.928 3.22113V17.1948L41.617 17.6211L42.8113 16.8632C43.5922 17.2895 44.6488 17.6211 46.0727 17.6211C49.2422 17.6211 51.8605 16.5317 51.8605 11.4159C51.8605 7.72113 49.9313 5.9685 47.7264 5.9685C46.3483 5.9685 45.2459 6.72639 44.2353 7.53166L44.1894 0.615866ZM21.7272 10.0422C22.1866 8.14745 22.3703 7.24744 24.4833 7.24744H26.2748C24.2077 10.4685 22.0487 13.6422 19.8898 16.8632L20.1654 17.3369H30.2252L30.5008 13.2632H29.674C29.0309 15.5843 28.4796 16.2948 26.1829 16.2948H24.024C26.091 13.0738 28.25 9.85271 30.4089 6.67902L30.1792 6.20534H20.9004V10.0422H21.7272ZM20.0276 7.34218V6.20534H17.7768C17.7768 5.11587 17.2715 3.22113 17.2715 2.3685C17.2715 1.80008 17.5471 1.51587 17.8227 1.51587C18.1902 1.51587 18.4199 1.94218 19.1089 3.22113C19.3386 3.64744 19.5683 3.88429 20.1195 3.88429C20.8085 3.88429 21.7272 3.31587 21.7272 2.55797C21.7272 1.70534 20.9004 0.426392 18.4658 0.426392C16.0313 0.426392 14.4695 2.08429 14.4695 5.16323V6.15797H13.0914V7.29481H14.4695V15.3001C14.4695 16.2474 14.2857 16.3422 13.0455 16.3895V17.2422H19.5683V16.3895C18.0065 16.3422 17.8227 16.2474 17.8227 15.3001V7.34218H20.0276ZM4.7772 0.615866L4.59346 0.47376L0.137768 1.08955V1.89481L0.918663 2.03692C1.28614 2.08429 1.46988 2.32113 1.46988 3.22113V15.3474C1.46988 16.2948 1.28614 16.3896 0.0458984 16.4369V17.2896H6.24712V16.4369C5.00687 16.3896 4.82313 16.2948 4.82313 15.3474V11.558H4.86907C5.60403 13.0738 6.52273 14.5896 7.5333 16.0106C8.31419 17.0527 9.18696 17.3369 10.7947 17.3369H12.7699V16.6264C12.3105 16.4369 12.0349 16.1527 11.3459 15.3948C9.87598 13.6896 8.63574 11.9369 7.48736 9.99481L7.99265 9.47376C9.14102 8.33692 10.5191 7.29481 12.3565 6.91587V6.20534H9.14102C8.63574 6.20534 8.22232 6.39481 7.85484 6.8685C7.44143 7.43692 6.98208 8.10008 6.47679 8.8106L4.86907 11.1317H4.82313V0.615866H4.7772Z"/>
<path fill-rule="evenodd" clip-rule="evenodd" d="M32.0166 10.5632V12.7422H37.8044V10.5632H32.0166Z"/>
</svg>
