<svg width="32" height="32" viewBox="0 0 32 32" fill="none" xmlns="http://www.w3.org/2000/svg">
<path d="M6.28571 24L4.36782 28.5942C4.2124 28.9665 4.53918 29.3601 4.9337 29.2758L7.24362 28.7822C7.41029 28.7466 7.58361 28.7983 7.70349 28.9195L9.28492 30.5175C9.52193 30.757 9.92317 30.6983 10.0816 30.4009L12 26.8" stroke="#485885" stroke-width="1.5" strokeMiterlimit="10" stroke-linecap="round" stroke-linejoin="round"/>
<path d="M25.7143 24L27.6266 28.5509C27.7836 28.9245 27.4544 29.3198 27.0586 29.233L24.771 28.7314C24.6015 28.6942 24.425 28.7476 24.3044 28.8723L22.7243 30.5069C22.4887 30.7506 22.0839 30.6942 21.9239 30.3953L20 26.8" stroke="#485885" stroke-width="1.5" strokeMiterlimit="10" stroke-linecap="round" stroke-linejoin="round"/>
<path d="M15.7446 1.15171C15.902 1.0582 16.098 1.0582 16.2554 1.15171L19.3331 2.9801C19.3976 3.01846 19.47 3.04178 19.5448 3.04833L23.1186 3.36121C23.302 3.37727 23.4617 3.49282 23.5344 3.66198L24.9374 6.92842C24.9673 6.99813 25.0127 7.06012 25.0702 7.10968L27.7713 9.43994C27.9119 9.56129 27.9737 9.75062 27.9317 9.93157L27.1297 13.387C27.1124 13.4613 27.1124 13.5387 27.1297 13.613L27.9317 17.0684C27.9737 17.2494 27.9119 17.4387 27.7713 17.5601L25.0702 19.8903C25.0127 19.9399 24.9673 20.0019 24.9374 20.0716L23.5344 23.338C23.4617 23.5072 23.302 23.6227 23.1186 23.6388L19.5448 23.9517C19.47 23.9582 19.3976 23.9815 19.3331 24.0199L16.2554 25.8483C16.098 25.9418 15.902 25.9418 15.7446 25.8483L12.6669 24.0199C12.6024 23.9815 12.53 23.9582 12.4552 23.9517L8.88141 23.6388C8.69801 23.6227 8.53826 23.5072 8.46561 23.338L7.06263 20.0716C7.03269 20.0019 6.98727 19.9399 6.92983 19.8903L4.22875 17.5601C4.08809 17.4387 4.0263 17.2494 4.06831 17.0684L4.87032 13.613C4.88758 13.5387 4.88758 13.4613 4.87032 13.387L4.06831 9.93157C4.0263 9.75062 4.08809 9.56129 4.22875 9.43994L6.92983 7.10968C6.98727 7.06012 7.03269 6.99813 7.06263 6.92842L8.46561 3.66198C8.53826 3.49282 8.69801 3.37727 8.88141 3.36121L12.4552 3.04833C12.53 3.04178 12.6024 3.01846 12.6669 2.9801L15.7446 1.15171Z" stroke="#485885" stroke-width="1.5" strokeMiterlimit="10" stroke-linecap="round" stroke-linejoin="round"/>
<path d="M11.2856 14.0959L14.0122 16.7947C14.207 16.9876 14.5208 16.9876 14.7156 16.7947L20.7142 10.8572" stroke="#485885" stroke-width="2" strokeMiterlimit="10" stroke-linecap="round" stroke-linejoin="round"/>
</svg>
