<svg width="36" height="28" viewBox="0 0 36 28" fill="none" xmlns="http://www.w3.org/2000/svg">
<path d="M10.8831 27.8428V25.9911C10.8831 25.2936 10.439 24.8247 9.72311 24.8186C9.3467 24.8126 8.95788 24.9297 8.68627 25.3431C8.48274 25.0159 8.1619 24.8186 7.71096 24.8186C7.39643 24.8186 7.08799 24.9112 6.84714 25.2569V24.8925H6.20508V27.8428H6.85346V26.2072C6.85346 25.6948 7.13734 25.4233 7.57528 25.4233C8.0013 25.4233 8.21746 25.7009 8.21746 26.2012V27.8428H8.86526V26.2072C8.86526 25.6948 9.16142 25.4233 9.58744 25.4233C10.0259 25.4233 10.2355 25.7009 10.2355 26.2012V27.8428H10.8831ZM14.4995 26.3678V24.8925H13.8576V25.2505C13.6538 24.9852 13.3454 24.8186 12.926 24.8186C12.0989 24.8186 11.451 25.4666 11.451 26.3678C11.451 27.2689 12.0991 27.9165 12.926 27.9165C13.3455 27.9165 13.6538 27.75 13.8576 27.4843V27.8428H14.4995V26.3678ZM12.1113 26.3678C12.1113 25.8491 12.4506 25.4233 13.0062 25.4233C13.5369 25.4233 13.8948 25.8306 13.8948 26.3678C13.8948 26.9044 13.5369 27.3119 13.0062 27.3119C12.4506 27.3119 12.1113 26.8862 12.1113 26.3678ZM28.2333 24.8149C28.4611 24.8149 28.6721 24.8545 28.8661 24.9335C29.0604 25.0126 29.2282 25.1216 29.3701 25.26C29.5119 25.399 29.6224 25.5624 29.7024 25.7512C29.7828 25.9406 29.8229 26.1455 29.8229 26.3677C29.8229 26.5892 29.7828 26.7945 29.7024 26.9834C29.6224 27.1728 29.5119 27.3364 29.3701 27.4752C29.2284 27.6134 29.0604 27.7219 28.8661 27.8008C28.6721 27.8802 28.4612 27.9197 28.2333 27.9197C28.0053 27.9197 27.794 27.8802 27.6003 27.8008C27.406 27.7219 27.2388 27.6134 27.0981 27.4752C26.9574 27.3364 26.8472 27.1728 26.7669 26.9834C26.6867 26.7945 26.6467 26.5892 26.6467 26.3677C26.6467 26.1455 26.6867 25.9406 26.7669 25.7512C26.8472 25.5624 26.9575 25.399 27.0981 25.26C27.2388 25.1216 27.406 25.0126 27.6003 24.9335C27.794 24.8545 28.0053 24.8149 28.2333 24.8149ZM28.2333 25.422C28.1018 25.422 27.9795 25.445 27.8666 25.4913C27.754 25.5376 27.6561 25.6018 27.574 25.6852C27.492 25.7685 27.4269 25.8683 27.3799 25.9841C27.3327 26.1002 27.3091 26.2278 27.3091 26.3678C27.3091 26.5073 27.3327 26.6351 27.3799 26.7511C27.4269 26.867 27.492 26.9668 27.574 27.0497C27.6561 27.1331 27.754 27.1976 27.8666 27.244C27.9795 27.29 28.1019 27.3136 28.2333 27.3136C28.3645 27.3136 28.487 27.29 28.5997 27.244C28.7127 27.1976 28.8107 27.1331 28.8938 27.0497C28.9769 26.9668 29.0424 26.867 29.0895 26.7511C29.1369 26.6351 29.1605 26.5073 29.1605 26.3678C29.1605 26.2278 29.137 26.1002 29.0895 25.9841C29.0424 25.8683 28.977 25.7685 28.8938 25.6852C28.8106 25.6018 28.7127 25.5376 28.5997 25.4913C28.487 25.4452 28.3645 25.422 28.2333 25.422ZM17.9921 26.3678C17.9862 25.4481 17.4185 24.8186 16.5913 24.8186C15.7273 24.8186 15.1227 25.4481 15.1227 26.3678C15.1227 27.3057 15.752 27.9165 16.6345 27.9165C17.0789 27.9165 17.4862 27.8052 17.8442 27.503L17.5295 27.028C17.2829 27.2253 16.968 27.3365 16.6718 27.3365C16.258 27.3365 15.8817 27.1452 15.789 26.6146H17.9799C17.9862 26.5342 17.9921 26.4539 17.9921 26.3678ZM15.7953 26.1084C15.8631 25.6826 16.122 25.3926 16.5789 25.3926C16.9924 25.3926 17.2577 25.6518 17.3256 26.1084H15.7953ZM20.6951 25.6452C20.5161 25.5343 20.1519 25.3926 19.7753 25.3926C19.4237 25.3926 19.2141 25.5219 19.2141 25.738C19.2141 25.9357 19.436 25.991 19.7139 26.0281L20.0161 26.0711C20.6581 26.1639 21.0469 26.4354 21.0469 26.9537C21.0469 27.5156 20.5532 27.9164 19.7014 27.9164C19.2198 27.9164 18.7756 27.7933 18.4239 27.5336L18.7262 27.034C18.9422 27.2005 19.2633 27.3426 19.7076 27.3426C20.1458 27.3426 20.3803 27.2134 20.3803 26.9846C20.3803 26.818 20.2136 26.7257 19.8619 26.6761L19.5593 26.6327C18.899 26.5402 18.5411 26.244 18.5411 25.7628C18.5411 25.1767 19.0227 24.8185 19.7695 24.8185C20.2383 24.8185 20.6642 24.9236 20.9725 25.1269L20.6951 25.6452ZM23.7792 25.4789H22.73V26.8123C22.73 27.1083 22.8349 27.3058 23.1557 27.3058C23.3222 27.3058 23.5322 27.2501 23.7238 27.1392L23.9087 27.6884C23.705 27.8302 23.3842 27.9166 23.1065 27.9166C22.3473 27.9166 22.082 27.5091 22.082 26.8242V25.479H21.4833V24.8926H22.082L22.0817 23.998H22.73V24.8926H23.7792V25.4789ZM26.0003 24.8186C26.1301 24.8186 26.3151 24.8434 26.4572 24.899L26.2594 25.5037C26.1237 25.4481 25.9879 25.4294 25.8585 25.4294C25.4387 25.4294 25.229 25.7009 25.229 26.1887V27.8428H24.5871V24.8925H25.2231V25.2505C25.3896 24.9911 25.63 24.8186 26.0003 24.8186ZM30.4436 27.413C30.4848 27.413 30.5238 27.421 30.5601 27.436C30.5963 27.4517 30.6278 27.4722 30.6549 27.4992C30.6819 27.5259 30.7035 27.5565 30.7191 27.5929C30.7346 27.6285 30.7425 27.6666 30.7425 27.7063C30.7425 27.7468 30.7346 27.7848 30.7191 27.8203C30.7035 27.8559 30.6818 27.8868 30.6549 27.9131C30.6278 27.9398 30.5963 27.9608 30.5601 27.9765C30.5238 27.9922 30.4848 28.0001 30.4436 28.0001C30.4014 28.0001 30.362 27.9922 30.3253 27.9765C30.2885 27.9608 30.2569 27.9397 30.2298 27.9131C30.203 27.8867 30.1821 27.8559 30.1661 27.8203C30.1509 27.7848 30.1431 27.7468 30.1431 27.7063C30.1431 27.6666 30.1509 27.6285 30.1661 27.5929C30.1821 27.5565 30.2031 27.5258 30.2298 27.4992C30.2569 27.4721 30.2885 27.4517 30.3253 27.436C30.3621 27.4211 30.4015 27.413 30.4436 27.413ZM30.4436 27.9358C30.4755 27.9358 30.5049 27.9296 30.5321 27.9177C30.5598 27.9056 30.5836 27.8894 30.6041 27.8689C30.6249 27.8484 30.6409 27.8237 30.6527 27.7957C30.6645 27.7682 30.6704 27.7385 30.6704 27.7065C30.6704 27.675 30.6644 27.6455 30.6527 27.6179C30.6408 27.59 30.6249 27.5652 30.6041 27.5448C30.5836 27.5242 30.56 27.5079 30.5321 27.4964C30.5048 27.4844 30.4754 27.479 30.4436 27.479C30.4115 27.479 30.3815 27.4845 30.3532 27.4964C30.3253 27.508 30.301 27.5242 30.2803 27.5448C30.2596 27.5652 30.2435 27.59 30.2318 27.6179C30.2198 27.6455 30.2142 27.675 30.2142 27.7065C30.2142 27.7385 30.2199 27.7682 30.2318 27.7957C30.2436 27.8237 30.2596 27.8484 30.2803 27.8689C30.3011 27.8894 30.3253 27.9057 30.3532 27.9177C30.3816 27.9296 30.4116 27.9358 30.4436 27.9358ZM30.4612 27.5694C30.4962 27.5694 30.523 27.5773 30.5422 27.593C30.5609 27.6081 30.5705 27.629 30.5705 27.6563C30.5705 27.6786 30.5628 27.6976 30.5477 27.7118C30.5326 27.727 30.5111 27.736 30.4836 27.7391L30.5725 27.8424H30.5028L30.4202 27.7398H30.3935V27.8424H30.3354V27.5694H30.4612ZM30.3934 27.6201V27.6933H30.4602C30.4755 27.6933 30.4878 27.6902 30.497 27.6842C30.5059 27.6781 30.5107 27.669 30.5107 27.6564C30.5107 27.6444 30.5059 27.6352 30.497 27.6291C30.4879 27.6233 30.4755 27.6202 30.4602 27.6202H30.3934V27.6201Z" fill="black"/>
<path d="M22.8646 2.37793H13.1309V19.8703H22.8646V2.37793Z" fill="#7773B5"/>
<path d="M13.7498 11.1246C13.7498 7.57575 15.4114 4.41539 17.9986 2.37844C16.1063 0.888992 13.7191 0 11.1239 0C4.98033 0 0 4.98055 0 11.1246C0 17.2683 4.98033 22.2492 11.1239 22.2492C13.7192 22.2492 16.1063 21.3603 17.9986 19.8708C15.4114 17.8336 13.7498 14.6734 13.7498 11.1246Z" fill="#E91D25"/>
<path d="M34.9362 18.0182V17.6601H35.0802V17.5873H34.7129V17.6601H34.8572V18.0182H34.9362ZM35.6502 18.0182V17.5864H35.5374L35.4075 17.8832L35.2779 17.5864H35.1651V18.0182H35.2448V17.6923L35.3665 17.9732H35.4488L35.5704 17.6916V18.0182H35.6502Z" fill="#12A0DB"/>
<path d="M35.9968 11.1244C35.9968 17.2682 31.0164 22.2491 24.8728 22.2491C22.2779 22.2491 19.8904 21.3601 17.998 19.8707C20.5854 17.8335 22.2469 14.6733 22.2469 11.1246C22.2469 7.57587 20.5854 4.41539 17.998 2.37844C19.8904 0.888992 22.278 2.14072e-09 24.8728 2.14072e-09C31.0164 -0.00011923 35.9968 4.98043 35.9968 11.1244Z" fill="#12A0DB"/>
</svg>
