<svg width="36" height="28" viewBox="0 0 36 28" fill="none" xmlns="http://www.w3.org/2000/svg">
<path d="M6.5479 27.8411V25.9873C6.5479 25.2889 6.10302 24.8195 5.38606 24.8133C5.00925 24.8072 4.61996 24.9245 4.34741 25.3387C4.14377 25.0109 3.82254 24.8133 3.37135 24.8133C3.05607 24.8133 2.74722 24.906 2.50598 25.2523V24.8876H1.86328V27.8411H2.5124V26.2036C2.5124 25.6906 2.79637 25.4187 3.23507 25.4187C3.66174 25.4187 3.87813 25.6968 3.87813 26.1972V27.8409H4.52688V26.2035C4.52688 25.6905 4.82348 25.4186 5.24991 25.4186C5.68873 25.4186 5.89915 25.6967 5.89915 26.1971V27.8408H6.5479V27.8411ZM16.1514 24.8876H15.1013V23.9914H14.4519V24.8876H13.8527V25.4746H14.4519V26.8216C14.4519 27.5074 14.7177 27.9151 15.4781 27.9151C15.7564 27.9151 16.0775 27.8286 16.2815 27.6867L16.096 27.1365C15.9045 27.2481 15.694 27.3034 15.5278 27.3034C15.206 27.3034 15.1013 27.1059 15.1013 26.809V25.4745H16.1514V24.8876ZM21.6329 24.8133C21.2626 24.8133 21.0212 24.9863 20.8544 25.246V24.8876H20.2178V27.8411H20.8603V26.1849C20.8603 25.6968 21.0708 25.4248 21.4907 25.4248C21.6204 25.4248 21.7563 25.4433 21.8924 25.4993L22.0902 24.8936C21.9483 24.8381 21.7629 24.8133 21.6329 24.8133ZM13.346 25.1223C13.0369 24.9185 12.6102 24.8133 12.1406 24.8133C11.3927 24.8133 10.9112 25.1715 10.9112 25.7588C10.9112 26.2408 11.2694 26.5373 11.9306 26.63L12.2337 26.673C12.5853 26.7225 12.7525 26.8152 12.7525 26.982C12.7525 27.2108 12.5174 27.3406 12.079 27.3406C11.6338 27.3406 11.3126 27.1986 11.0965 27.0315L10.7935 27.5323C11.1459 27.7914 11.5905 27.9151 12.0724 27.9151C12.9254 27.9151 13.4199 27.5135 13.4199 26.9512C13.4199 26.4323 13.0305 26.1603 12.3881 26.0676L12.0849 26.0244C11.8065 25.9872 11.5847 25.9317 11.5847 25.7342C11.5847 25.5177 11.7948 25.388 12.1467 25.388C12.524 25.388 12.8884 25.5302 13.0674 25.6412L13.346 25.1223ZM30.5632 24.8133C30.1921 24.8133 29.9509 24.9863 29.7844 25.246V24.8876H29.1477V27.8411H29.7904V26.1849C29.7904 25.6968 30.0004 25.4248 30.4209 25.4248C30.5506 25.4248 30.6863 25.4433 30.8223 25.4993L31.0202 24.8936C30.8782 24.8381 30.693 24.8133 30.5632 24.8133ZM22.2819 26.3642C22.2819 27.2602 22.9063 27.9151 23.8578 27.9151C24.3026 27.9151 24.5993 27.8164 24.9208 27.563L24.6114 27.0441C24.3708 27.217 24.117 27.3094 23.8393 27.3094C23.3261 27.3034 22.9493 26.9325 22.9493 26.3642C22.9493 25.7959 23.3261 25.4248 23.8393 25.4188C24.117 25.4188 24.3708 25.5114 24.6114 25.6844L24.9208 25.1656C24.5994 24.912 24.3027 24.8133 23.8578 24.8133C22.9063 24.8133 22.2819 25.4684 22.2819 26.3642ZM28.3013 26.3642V24.8876H27.6585V25.246C27.4548 24.9804 27.1456 24.8133 26.7253 24.8133C25.8973 24.8133 25.2483 25.4621 25.2483 26.3642C25.2483 27.2665 25.8973 27.9151 26.7253 27.9151C27.1456 27.9151 27.4548 27.7484 27.6585 27.4828V27.8411H28.3013V26.3642ZM25.9094 26.3642C25.9094 25.8452 26.2496 25.4188 26.8056 25.4188C27.3373 25.4188 27.6954 25.8269 27.6954 26.3642C27.6954 26.9018 27.3373 27.3094 26.8056 27.3094C26.2496 27.3095 25.9094 26.8832 25.9094 26.3642ZM18.1537 24.8133C17.2887 24.8133 16.6829 25.4435 16.6829 26.3642C16.6829 27.3035 17.3134 27.9151 18.1972 27.9151C18.642 27.9151 19.0504 27.8042 19.4085 27.5011L19.0935 27.0251C18.8461 27.2232 18.5309 27.3344 18.2341 27.3344C17.82 27.3344 17.4434 27.1425 17.3502 26.6112H19.5447C19.5507 26.5309 19.5568 26.4507 19.5568 26.3642C19.5505 25.4435 18.9817 24.8133 18.1537 24.8133ZM18.1413 25.388C18.5555 25.388 18.821 25.6475 18.8889 26.1046H17.3565C17.4246 25.6784 17.684 25.388 18.1413 25.388ZM34.265 26.3642V23.7012H33.622V25.2459C33.4182 24.9803 33.1091 24.8132 32.6889 24.8132C31.8608 24.8132 31.212 25.462 31.212 26.364C31.212 27.2664 31.8608 27.915 32.6889 27.915C33.1091 27.915 33.4182 27.7482 33.622 27.4826V27.8409H34.265V26.3642ZM31.8731 26.3642C31.8731 25.8452 32.2128 25.4188 32.769 25.4188C33.3005 25.4188 33.6592 25.8269 33.6592 26.3642C33.6592 26.9018 33.3004 27.3094 32.769 27.3094C32.2129 27.3095 31.8731 26.8832 31.8731 26.3642ZM10.1695 26.3642V24.8876H9.52654V25.246C9.32255 24.9804 9.01358 24.8133 8.59357 24.8133C7.76522 24.8133 7.11645 25.4621 7.11645 26.3642C7.11645 27.2665 7.76522 27.9151 8.59357 27.9151C9.01358 27.9151 9.32255 27.7484 9.52654 27.4828V27.8411H10.1695V26.3642ZM7.77783 26.3642C7.77783 25.8452 8.11786 25.4188 8.67355 25.4188C9.20556 25.4188 9.56368 25.8269 9.56368 26.3642C9.56368 26.9018 9.20556 27.3094 8.67355 27.3094C8.11798 27.3095 7.77783 26.8832 7.77783 26.3642ZM35.3363 27.4131C35.3775 27.4131 35.4163 27.4209 35.4527 27.4359C35.4886 27.4513 35.5204 27.4723 35.5474 27.4991C35.5744 27.5257 35.5957 27.5568 35.6116 27.5926C35.6268 27.6284 35.6349 27.666 35.6349 27.7065C35.6349 27.7466 35.6268 27.7849 35.6116 27.8202C35.5957 27.8557 35.5743 27.8869 35.5474 27.9132C35.5204 27.9402 35.4886 27.961 35.4527 27.9767C35.4163 27.9924 35.3775 28.0002 35.3363 28.0002C35.294 28.0002 35.2545 27.9924 35.2176 27.9767C35.1809 27.961 35.1494 27.9401 35.1225 27.9132C35.0954 27.8868 35.0745 27.8557 35.0585 27.8202C35.0434 27.7849 35.0354 27.7466 35.0354 27.7065C35.0354 27.666 35.0434 27.6284 35.0585 27.5926C35.0745 27.5568 35.0955 27.5256 35.1225 27.4991C35.1494 27.4722 35.1809 27.4513 35.2176 27.4359C35.2545 27.4209 35.2939 27.4131 35.3363 27.4131ZM35.3363 27.9353C35.3681 27.9353 35.3973 27.9292 35.4247 27.9176C35.4521 27.9054 35.476 27.8891 35.4966 27.8682C35.5173 27.8477 35.5334 27.8238 35.5449 27.7961C35.5567 27.7682 35.5629 27.7386 35.5629 27.7066C35.5629 27.6748 35.5566 27.6454 35.5449 27.6173C35.5333 27.5899 35.5173 27.5655 35.4966 27.5446C35.4759 27.5242 35.4521 27.5079 35.4247 27.4963C35.3973 27.4843 35.3679 27.4786 35.3363 27.4786C35.304 27.4786 35.274 27.4844 35.2455 27.4963C35.2176 27.508 35.1933 27.5242 35.1726 27.5446C35.1521 27.5656 35.1356 27.5899 35.1244 27.6173C35.1123 27.6454 35.1067 27.6748 35.1067 27.7066C35.1067 27.7386 35.1124 27.7682 35.1244 27.7961C35.1358 27.8238 35.1521 27.8478 35.1726 27.8682C35.1935 27.8891 35.2176 27.9054 35.2455 27.9176C35.274 27.9294 35.304 27.9353 35.3363 27.9353ZM35.3535 27.569C35.3883 27.569 35.4152 27.5768 35.4344 27.5926C35.4535 27.6083 35.4627 27.6295 35.4627 27.6563C35.4627 27.6785 35.4552 27.6973 35.4402 27.7122C35.4251 27.7266 35.4037 27.7354 35.3758 27.7388L35.4648 27.8418H35.3949L35.3123 27.7394H35.2858V27.8418H35.2277V27.569H35.3535ZM35.2858 27.6202V27.693H35.3527C35.3681 27.693 35.3802 27.6901 35.3894 27.6841C35.3985 27.678 35.4032 27.6688 35.4032 27.6564C35.4032 27.6441 35.3985 27.6351 35.3894 27.6291C35.3803 27.6233 35.3681 27.6202 35.3527 27.6202H35.2858Z" fill="#010101"/>
<path d="M22.8671 2.37793H13.1328V19.8691H22.8671V2.37793Z" fill="#F16022"/>
<path d="M13.7508 11.1238C13.7508 7.57518 15.4126 4.4149 18.0001 2.3781C16.1075 0.888692 13.72 0 11.1246 0C4.98049 0 0 4.98015 0 11.1238C0 17.2671 4.98049 22.2471 11.1246 22.2471C13.72 22.2471 16.1074 21.3587 18.0001 19.8694C15.4126 17.8324 13.7508 14.6721 13.7508 11.1238Z" fill="#E91D25"/>
<path d="M36 11.1238C36 17.2671 31.019 22.2471 24.8751 22.2471C22.2798 22.2471 19.8924 21.3587 18 19.8694C20.5875 17.8325 22.249 14.6722 22.249 11.1238C22.249 7.57518 20.5875 4.4149 18 2.3781C19.8922 0.888692 22.2798 2.13252e-09 24.8751 2.13252e-09C31.0191 -0.000118998 36 4.98015 36 11.1238ZM34.9387 18.0167V17.6584H35.083V17.5856H34.7152V17.6584H34.8596V18.0167H34.9387ZM35.6527 18.0167V17.5849H35.5399L35.4099 17.8818L35.2806 17.5849H35.1676V18.0167H35.2474V17.691L35.3691 17.9716H35.4511L35.573 17.6903V18.0167H35.6527Z" fill="#F69E1E"/>
</svg>
