<svg id="logo" width="98" height="24" viewBox="0 0 98 24" fill="currentColor" xmlns="http://www.w3.org/2000/svg">
<g clip-path="url(#clip0_1910_193871)">
<path d="M95.8003 14.1486C95.8003 12.3354 95.8003 10.3379 96.1237 9.62635C96.2879 9.25915 96.9159 9.18979 97.3551 9.0984L97.8862 8.98335C98.0709 8.82015 98.0241 8.43255 97.8403 8.3175C97.0087 8.36401 96.1697 8.38686 95.1764 8.38686C94.2734 8.38686 93.4213 8.36401 92.5208 8.3175C92.2901 8.38686 92.2671 8.82259 92.4748 8.98335L93.0059 9.05271C93.5806 9.12125 93.9524 9.282 94.1601 9.6239C94.5763 10.3126 94.5993 12.4244 94.5993 14.1461V18.6227C94.5993 18.9899 94.5993 19.1049 94.5295 19.1735C94.2989 19.0356 92.1489 16.6023 91.1811 15.5464L88.8718 13.0674C88.0641 12.1951 85.5463 9.3024 85.154 8.31505C84.5998 8.36156 84.0449 8.38441 83.5606 8.38441C82.9859 8.38441 81.7127 8.40726 80.8351 8.31505C80.6045 8.38441 80.5815 8.843 80.7432 8.9809L81.0888 9.05026C81.4122 9.1188 82.0591 9.3024 82.3128 9.50885C83.0984 10.1747 83.0754 10.5419 83.0754 12.333V17.7732C83.0754 19.5864 83.0754 21.5839 82.775 22.2955C82.6108 22.6627 82.2003 22.732 81.7587 22.8234L81.2505 22.9385C81.0658 23.1017 81.1126 23.4893 81.2973 23.6043C82.1051 23.5578 82.729 23.535 83.6985 23.535C84.5769 23.535 85.4774 23.5578 86.3311 23.6043C86.5626 23.535 86.5856 23.0992 86.3779 22.9385L85.8698 22.8691C85.2951 22.8006 84.8995 22.6398 84.6918 22.2979C84.2994 21.6092 84.2764 19.4974 84.2764 17.7757V13.3008C84.2764 12.0841 84.2764 11.832 84.3454 11.832C84.7377 12.1763 85.5004 13.0258 86.978 14.7239L92.382 20.8536C94.0452 22.7361 94.7151 23.5162 95.0845 23.9984C95.3611 24.0213 95.6846 23.9291 95.8693 23.6769C95.8003 23.149 95.8003 20.3256 95.8003 19.637V14.1486ZM69.482 20.2318C69.482 22.6651 69.2743 22.7345 68.1891 22.8487L67.3345 22.9409C67.1703 23.1041 67.1958 23.5121 67.3805 23.6068C68.4197 23.5602 69.8284 23.5374 70.8447 23.5374H73.4773C76.1798 23.5374 78.1656 23.5602 79.1818 23.6068C79.5045 22.9866 80.0134 21.2404 80.1513 20.2775C80.0134 20.0482 79.6202 19.9797 79.4125 20.1404C78.6039 21.9993 78.0991 22.6423 75.1635 22.6194C73.2253 22.5966 72.8305 22.4399 72.5538 22.1135C72.2074 21.7234 72.1614 20.8968 72.1614 19.7259V16.8095C72.1614 16.2383 72.1844 16.1902 72.7155 16.1902H73.8238C75.8325 16.1902 76.2258 16.2359 76.3875 17.2004L76.5517 18.1184C76.7364 18.2563 77.1747 18.2563 77.2905 18.0955C77.2675 17.3611 77.2207 16.5574 77.2207 15.6851C77.2207 14.8356 77.2675 14.009 77.2905 13.3897C77.1747 13.2061 76.7364 13.2061 76.5517 13.366L76.3875 14.1469C76.1798 15.1343 75.8325 15.1572 73.8238 15.1572H72.7155C72.1844 15.1572 72.1614 15.1343 72.1614 14.537V10.6594C72.1614 9.35381 72.1614 9.30485 73.1539 9.30485H74.703C75.325 9.30016 75.9454 9.36947 76.5508 9.51129C77.2896 9.71774 77.6361 10.2694 78.0055 11.6002C78.1902 11.7381 78.6524 11.6924 78.7443 11.5088C78.6056 10.5215 78.4677 8.70836 78.3749 8.3175C78.0744 8.36401 76.7331 8.38686 75.2554 8.38686H70.8447C69.8284 8.38686 68.7432 8.36401 67.8656 8.3175C67.6809 8.4097 67.6579 8.82259 67.8197 8.98335L68.1891 9.02986C69.2743 9.16695 69.482 9.25915 69.482 11.6924V20.2318ZM64.77 19.8189C64.77 18.4179 64.9087 18.2351 65.7633 18.0972L66.1787 18.0278C66.3863 17.8646 66.3634 17.477 66.1327 17.362C65.1394 17.4085 64.3546 17.4313 63.3153 17.4313C61.722 17.4313 60.6129 17.4085 59.7124 17.3628C59.5277 17.477 59.5277 17.8671 59.6894 18.0278L60.521 18.1657C62.0684 18.4179 62.0914 18.5566 62.0914 20.1861V21.0119C62.0914 21.8393 62.0216 22.2522 61.8837 22.4587C61.6062 22.803 60.9363 22.9866 59.8314 22.9866C58.4687 22.9866 57.2176 22.5044 55.9731 21.0356C54.7286 19.5668 54.3108 17.5921 54.3108 15.7553C54.3108 11.8532 55.6776 8.93765 59.7419 8.93765C62.0281 8.93765 63.6683 10.0392 64.1748 12.2661C64.2897 12.4725 64.7979 12.4497 64.9136 12.2204C64.7979 10.4301 64.6362 9.25915 64.6132 8.57045C64.3365 8.57045 63.6667 8.47825 63.1356 8.36401C62.327 8.20081 61.149 8.01966 60.0637 8.01966C56.854 8.01966 55.0521 9.00619 53.4144 10.7279C51.9597 12.2204 51.2898 14.1943 51.2898 16.1225C51.2898 18.0507 51.9597 19.9797 53.3224 21.3799C55.0447 23.1743 56.9385 23.9087 59.7099 23.9087C61.0234 23.9087 62.7588 23.6337 64.1904 23.2893C64.6288 23.1971 65.045 23.1057 65.2987 23.1057C65.3914 23.0364 65.3914 22.8528 65.3216 22.7614C64.8833 22.5549 64.7675 21.9576 64.7675 21.1539V19.8189H64.77ZM41.2001 10.3632C41.2001 9.3073 41.2239 9.23875 42.424 9.23875C44.4336 9.23875 45.6116 10.8226 45.6116 12.6357C45.6116 14.8169 44.5724 15.9185 42.3091 15.9185C41.2001 15.9185 41.2001 15.8728 41.2001 15.1384V10.3632ZM38.5215 20.2367C38.5215 22.67 38.3138 22.7394 37.2285 22.8764L36.7204 22.9458C36.5119 23.109 36.5816 23.517 36.7663 23.6117C37.8286 23.5654 38.8684 23.5423 39.8858 23.5423C40.9021 23.5423 41.9381 23.5651 42.9568 23.6117C43.1415 23.5194 43.1653 23.1066 43.0036 22.9458L42.4955 22.8764C41.4102 22.7394 41.2017 22.67 41.2017 20.2367V17.2991C41.2017 16.8169 41.2255 16.794 41.9175 16.794C42.6802 16.794 42.9338 16.8862 43.35 17.5749C43.9041 18.4725 44.5502 19.7324 45.1741 20.6969C46.5828 22.8316 47.7838 23.7267 50.001 23.7267C50.8088 23.7267 51.248 23.6582 51.5246 23.5888C51.5944 23.4746 51.5944 23.2216 51.4787 23.1302C50.8875 23.058 50.3321 22.81 49.8853 22.4187C48.8 21.5211 47.645 19.5717 45.798 16.4725C45.7052 16.3354 45.6592 16.1518 45.798 16.0825C46.9292 15.6239 48.5685 14.568 48.5685 12.4554C48.5685 10.803 47.7148 9.72345 46.5368 9.10411C45.5205 8.55332 43.9501 8.32321 42.149 8.32321C40.2552 8.32321 38.2908 8.39257 36.837 8.53047C36.6522 8.64471 36.6522 9.01191 36.814 9.17266L37.4149 9.24202C38.5001 9.35625 38.5231 9.63206 38.5231 11.8361V20.2408L38.5215 20.2367ZM27.9752 8.93765C31.6472 8.93765 32.7406 12.9548 32.7406 16.4211C32.7406 21.0356 31.0931 22.9866 28.4596 22.9866C24.511 22.9866 23.6253 18.6708 23.6253 15.5031C23.6253 10.6137 25.666 8.93765 27.9761 8.93765H27.9752ZM28.2749 8.01966C23.4258 8.01966 20.7225 11.486 20.7225 16.169C20.7225 20.2547 23.0096 23.9046 28.2289 23.9046C32.8941 23.9046 35.6425 20.5305 35.6425 16.0082C35.6425 11.8303 33.61 8.01966 28.2749 8.01966ZM18.9879 22.8259C18.2491 22.7108 17.9946 22.5737 17.9257 21.0356C17.7615 17.6378 17.7172 14.2408 17.7172 10.843C17.7172 9.62635 17.9487 9.25915 18.9641 9.0984L19.7268 8.98335C19.9574 8.84544 19.9115 8.41215 19.6578 8.3175C19.0109 8.36374 18.2026 8.38686 17.2328 8.38686C16.7247 8.38686 15.9621 8.36401 15.339 8.3175C14.9466 9.8328 14.207 11.1873 13.4682 12.7026L11.2977 17.109C10.7666 18.1877 10.4661 18.8308 10.0967 19.4966C9.79624 18.9687 9.19369 17.8206 9.01145 17.4305L6.47074 12.1266C5.86984 10.8871 5.29274 9.69326 5.2008 8.31586C4.34623 8.38522 3.53764 8.38522 2.72904 8.38522C1.8753 8.38522 1.25141 8.36238 0.558564 8.31586C0.350875 8.38522 0.327889 8.82096 0.466623 8.98171L1.25141 9.11962C2.15441 9.28282 2.49837 9.73977 2.49837 10.8185C2.49837 12.2188 2.35964 14.1241 2.26769 15.6851C2.15195 18.0727 2.08299 19.5643 1.92127 21.0103C1.75709 22.4113 1.59783 22.7557 0.489608 22.8936L0.0972143 22.9393C-0.0415192 23.0535 -0.0415192 23.4901 0.166171 23.6051C1.06917 23.5586 1.89829 23.5358 2.6371 23.5358C3.49167 23.5358 4.2075 23.5586 5.06207 23.6051C5.24677 23.5129 5.24677 23.0772 5.08505 22.9393L4.32325 22.8014C3.32995 22.6178 3.30696 22.2734 3.30696 20.7614C3.30696 18.8789 3.35294 16.8356 3.39891 15.4354C3.4457 14.4717 3.49167 12.6814 3.53764 11.5562H3.58443C3.86108 12.2449 4.48743 13.6908 4.92333 14.6569L6.9756 19.0633C7.50673 20.2114 8.50003 22.4611 8.89242 23.7006C9.0566 23.7928 9.40056 23.7928 9.49251 23.7006C9.9087 22.6219 11.0629 20.0735 11.8485 18.4668L13.8343 14.4268C14.2735 13.5088 14.5969 12.8193 15.22 11.557H15.2692V20.9434C15.2692 22.5044 15.2003 22.6651 14.2768 22.8259L13.6529 22.9409C13.4222 23.0788 13.5141 23.5121 13.6988 23.6068C14.7151 23.5602 15.7084 23.5374 16.7937 23.5374C17.7172 23.5374 18.6177 23.5602 19.611 23.6068C19.8655 23.5146 19.8885 23.0356 19.6578 22.9409L18.9879 22.8259Z"/>
<path d="M32.904 5.48518C32.4689 5.40358 32.4262 5.34891 32.23 4.78098L30.9987 1.22978C30.8624 0.847892 30.7524 0.449687 30.6153 0.0678021C30.5988 0.0460593 30.5773 0.028564 30.5526 0.0167807C30.5279 0.00499732 30.5007 -0.000731189 30.4733 7.46463e-05C30.456 7.46463e-05 30.1753 0.347688 29.8765 0.408071C29.9019 0.551686 29.8165 0.754869 29.7123 1.02659L28.5433 4.04577C28.3644 4.50354 28.2281 4.86176 28.1255 5.07963C27.9974 5.35952 27.9038 5.42725 27.6567 5.46968L27.4006 5.51211C27.3727 5.54736 27.3583 5.59132 27.3599 5.63616C27.3616 5.68099 27.3792 5.72379 27.4096 5.75691C27.7076 5.73977 27.972 5.73161 28.2535 5.73161C28.6032 5.73977 28.8848 5.73977 29.1565 5.75691C29.2255 5.72345 29.2337 5.57086 29.1738 5.51211L28.9275 5.46968C28.6115 5.41909 28.5778 5.40195 28.7485 4.89848L29.0983 3.88094C29.1746 3.65246 29.1664 3.65246 29.388 3.65246H30.5225C30.7614 3.65246 30.7951 3.65246 30.8722 3.88094L31.2769 5.03557C31.405 5.39216 31.359 5.44357 31.0553 5.48518L30.8673 5.51048C30.8423 5.54787 30.8312 5.59275 30.8358 5.63742C30.8404 5.68209 30.8606 5.72376 30.8928 5.75528C31.1916 5.74712 31.5667 5.72998 31.9337 5.72998C32.377 5.72998 32.693 5.73814 33.0419 5.75528C33.0714 5.72078 33.0869 5.67657 33.0854 5.6313C33.0839 5.58603 33.0655 5.54295 33.0337 5.51048L32.904 5.48518ZM30.4142 3.27221H29.5268C29.3224 3.27221 29.3051 3.27221 29.3905 3.02741L29.7484 2.03516C29.8937 1.63696 29.9701 1.42562 30.0045 1.36605H30.0218C30.0645 1.42562 30.1039 1.58637 30.2607 2.03516L30.6202 3.05189C30.6867 3.25507 30.6522 3.27221 30.4142 3.27221Z"/>
<path d="M45.894 0.110234C45.587 0.12737 45.3654 0.13553 44.9984 0.13553C44.6701 0.13553 44.3499 0.12737 44.0174 0.110234C43.9353 0.13553 43.9239 0.297096 44.0002 0.355032L44.1964 0.380328C44.4098 0.406439 44.5461 0.461927 44.6233 0.592486C44.7768 0.847076 44.7875 1.62717 44.7875 2.26282V3.91684C44.7875 4.0523 44.7875 4.09473 44.762 4.12003C44.6799 4.06943 43.8836 3.17021 43.5257 2.78098L42.6703 1.86544C42.3715 1.54312 41.439 0.478247 41.2969 0.110234C41.0925 0.12737 40.8865 0.13553 40.7084 0.13553C40.4949 0.13553 40.0262 0.144505 39.7019 0.110234C39.6198 0.13553 39.6083 0.305256 39.6683 0.355032L39.7963 0.380328C39.9154 0.406439 40.1542 0.474167 40.2478 0.550054C40.5384 0.794852 40.5294 0.931939 40.5294 1.59289V3.60269C40.5294 4.27262 40.5294 5.01027 40.4186 5.27303C40.3586 5.40848 40.2051 5.43622 40.0434 5.46805L39.8554 5.51048C39.8251 5.54525 39.8099 5.59053 39.8132 5.63642C39.8164 5.6823 39.8378 5.72505 39.8727 5.75528C40.1715 5.73814 40.4013 5.72998 40.7601 5.72998C41.0835 5.72998 41.4168 5.73814 41.732 5.75528C41.8141 5.72998 41.8256 5.56923 41.7493 5.51048L41.5613 5.48518C41.3478 5.45907 41.2034 5.40358 41.1262 5.27303C40.9817 5.01844 40.9727 4.23916 40.9727 3.60269V1.9503C40.9727 1.50069 40.9727 1.40766 40.9981 1.40766C41.1434 1.53496 41.425 1.8483 41.9709 2.4758L43.9665 4.73937C44.5806 5.43378 44.8277 5.71856 44.9639 5.90052C45.0183 5.90636 45.0733 5.89859 45.1239 5.87793C45.1746 5.85727 45.2192 5.82436 45.2537 5.7822C45.2283 5.58637 45.2283 4.54434 45.2283 4.28975V2.26364C45.2283 1.59371 45.2283 0.856052 45.3481 0.593302C45.4072 0.457847 45.5525 0.430103 45.7143 0.399095L45.9105 0.355848C45.9257 0.338713 45.9374 0.318732 45.9449 0.297066C45.9523 0.2754 45.9554 0.252478 45.9539 0.229631C45.9523 0.206784 45.9463 0.184465 45.936 0.16397C45.9257 0.143474 45.9115 0.125209 45.894 0.110234Z"/>
<path d="M72.4931 4.4758C72.1943 5.16286 72.0071 5.40032 70.9243 5.39216C70.2077 5.38318 70.0624 5.32362 69.9606 5.2053C69.8325 5.06087 69.8153 4.7565 69.8153 4.32402V3.24691C69.8153 3.03475 69.8235 3.01843 70.0197 3.01843H70.4302C71.169 3.01843 71.3167 3.03475 71.3767 3.39134L71.4366 3.72998C71.5047 3.78057 71.6665 3.78057 71.7091 3.72182C71.7009 3.45009 71.6837 3.15062 71.6837 2.83157C71.6837 2.51252 71.7009 2.21305 71.7091 1.98375C71.6665 1.91603 71.5047 1.91603 71.4366 1.97559L71.3767 2.26364C71.3003 2.62839 71.1723 2.63655 70.4302 2.63655H70.0197C69.8235 2.63655 69.8153 2.62839 69.8153 2.40807V0.979267C69.8153 0.496199 69.8153 0.479063 70.1822 0.479063H70.7569C70.9865 0.477411 71.2155 0.502886 71.4391 0.55495C71.7116 0.631653 71.8397 0.834836 71.9759 1.32688C72.0449 1.37747 72.2148 1.36034 72.2493 1.29261C72.1976 0.928675 72.1475 0.258745 72.113 0.114314C72.0014 0.13145 71.5072 0.13961 70.9638 0.13961H69.3293C68.9542 0.13961 68.5527 0.13145 68.2293 0.114314C68.1603 0.148585 68.1521 0.301176 68.2121 0.359112L68.3483 0.376248C68.7489 0.427655 68.8261 0.457847 68.8261 1.35952V4.51007C68.8261 5.40766 68.7489 5.43377 68.3483 5.47621L68.0331 5.51048C67.9732 5.57004 67.9814 5.72264 68.0495 5.75528C68.4337 5.73814 68.9525 5.72998 69.3293 5.72998H70.3013C71.2995 5.72998 72.0326 5.73814 72.4077 5.75528C72.5276 5.5268 72.7148 4.88216 72.7665 4.52639C72.7358 4.48508 72.6906 4.45687 72.6398 4.44748C72.5891 4.43809 72.5366 4.44821 72.4931 4.4758Z"/>
<path d="M78.3347 5.57821C78.1163 5.55147 77.9112 5.4599 77.7461 5.31546C77.3455 4.98906 76.9194 4.26446 76.2373 3.11962C76.2028 3.06903 76.1855 3.0013 76.2373 2.976C76.6551 2.80628 77.2601 2.41623 77.2601 1.63614C77.2682 1.37991 77.2017 1.1268 77.0684 0.907312C76.9351 0.687828 76.7408 0.511333 76.509 0.399095C76.1338 0.195097 75.5543 0.110234 74.8885 0.110234C74.1891 0.110234 73.4642 0.13553 72.9274 0.186937C72.8592 0.228553 72.8592 0.364824 72.9183 0.424391L73.14 0.449687C73.5414 0.492119 73.5504 0.593302 73.5504 1.40766V4.50844C73.5504 5.40603 73.4741 5.43214 73.0735 5.48355L72.8855 5.50885C72.869 5.52529 72.8562 5.54505 72.848 5.56679C72.8398 5.58854 72.8364 5.61177 72.8379 5.63494C72.8395 5.65811 72.846 5.68069 72.857 5.70116C72.8681 5.72163 72.8834 5.73952 72.9019 5.75364C73.2943 5.73624 73.6774 5.7278 74.0512 5.72835C74.4263 5.72835 74.8105 5.73651 75.1857 5.75364C75.2538 5.72019 75.262 5.5676 75.2021 5.50885L75.0149 5.48355C74.6209 5.43378 74.5388 5.40848 74.5388 4.51007V3.42725C74.5388 3.24936 74.5478 3.2412 74.8031 3.2412C75.0847 3.2412 75.1783 3.27466 75.3318 3.52925C75.537 3.85972 75.7759 4.32647 76.0058 4.68225C76.5262 5.4705 76.9695 5.80097 77.7879 5.80097C77.977 5.80695 78.1661 5.78996 78.3511 5.75038C78.3659 5.72331 78.3722 5.69247 78.3693 5.66181C78.3663 5.63114 78.3543 5.60204 78.3347 5.57821ZM74.9492 2.91644C74.5388 2.91644 74.5388 2.8993 74.5388 2.62839V0.865028C74.5388 0.474983 74.5478 0.449687 74.9911 0.449687C75.7299 0.449687 76.1675 1.03475 76.1675 1.70387C76.1683 2.50925 75.7849 2.91644 74.9492 2.91644Z"/>
<path d="M26.8802 0.399095L27.1617 0.355848C27.1808 0.340409 27.1957 0.320481 27.2051 0.297871C27.2144 0.27526 27.218 0.250683 27.2154 0.226369C27.2128 0.202055 27.2041 0.178774 27.1901 0.158636C27.1762 0.138498 27.1574 0.122141 27.1355 0.11105C26.8966 0.128186 26.5986 0.136346 26.2399 0.136346C26.0527 0.136346 25.7711 0.128186 25.5413 0.11105C25.396 0.670821 25.1226 1.17184 24.8501 1.72998L24.0489 3.36197C23.8527 3.75364 23.741 3.99273 23.6047 4.24324C23.4939 4.04822 23.2723 3.6239 23.2041 3.48029L22.2658 1.5219C22.0442 1.06413 21.8316 0.62431 21.7971 0.114314C21.481 0.13961 21.1831 0.13961 20.8842 0.13961C20.569 0.13961 20.3383 0.13145 20.083 0.114314C20.0059 0.13961 20.001 0.301176 20.0486 0.359112L20.3383 0.410519C20.6708 0.469271 20.7989 0.638998 20.7989 1.03802C20.7989 1.55454 20.748 2.26201 20.7168 2.8332C20.6741 3.71529 20.6486 4.26609 20.5895 4.79975C20.5296 5.31709 20.4697 5.44438 20.0601 5.49497L19.9156 5.51211C19.8884 5.54874 19.8759 5.59413 19.8806 5.6394C19.8854 5.68468 19.9069 5.72658 19.941 5.75691C20.2694 5.73977 20.5805 5.73161 20.8531 5.73161C21.1691 5.73161 21.4334 5.73977 21.7487 5.75691C21.8176 5.72345 21.8176 5.56189 21.7577 5.51211L21.4761 5.4607C21.1092 5.39379 21.101 5.2665 21.101 4.70673C21.101 4.0115 21.1182 3.2567 21.1346 2.74018C21.1519 2.38359 21.1691 1.72264 21.1863 1.3073H21.2028C21.3054 1.56189 21.5361 2.09555 21.6953 2.44969L22.4538 4.08004C22.65 4.50436 23.0161 5.33504 23.1614 5.79363C23.196 5.81024 23.2339 5.81887 23.2723 5.81887C23.3107 5.81887 23.3485 5.81024 23.3831 5.79363C23.5366 5.39542 23.9627 4.45377 24.2533 3.86054L24.9863 2.36646C25.1505 2.02782 25.2679 1.77323 25.4986 1.30566H25.515V4.77282C25.515 5.34891 25.4895 5.40848 25.1489 5.46805L24.9182 5.51048C24.8361 5.56107 24.8673 5.72264 24.9354 5.75528C25.3106 5.73814 25.996 5.72998 26.3975 5.72998C26.7381 5.72998 26.7505 5.73814 27.119 5.75528C27.2126 5.72182 27.2208 5.54312 27.1355 5.51048L26.8892 5.46805C26.6158 5.42562 26.5222 5.37502 26.4968 4.80709C26.4377 3.55209 26.4205 2.2971 26.4205 1.04291C26.4196 0.593302 26.505 0.457847 26.8802 0.399095Z"/>
<path d="M39.3062 0.110234C38.9992 0.12737 38.7776 0.13553 38.4106 0.13553C38.0823 0.13553 37.7621 0.12737 37.4297 0.110234C37.3476 0.13553 37.3361 0.297096 37.4124 0.355032L37.6086 0.380328C37.822 0.406439 37.9583 0.461927 38.0355 0.592486C38.189 0.847076 38.1997 1.62717 38.1997 2.26282V3.91684C38.1997 4.0523 38.1997 4.09473 38.1742 4.12003C38.0921 4.06943 37.2958 3.17021 36.9379 2.78098L36.0825 1.86544C35.7837 1.54312 34.8512 0.478247 34.7092 0.110234C34.5048 0.12737 34.2987 0.13553 34.1206 0.13553C33.9071 0.13553 33.4384 0.144505 33.1141 0.110234C33.032 0.13553 33.0205 0.305256 33.0805 0.355032L33.2085 0.380328C33.3292 0.408071 33.5665 0.474983 33.6576 0.55087C33.9474 0.795668 33.9391 0.932755 33.9391 1.59371V3.60269C33.9391 4.27262 33.9391 5.01027 33.8283 5.27302C33.7684 5.40848 33.6149 5.43622 33.4532 5.46805L33.2652 5.51048C33.2349 5.54524 33.2197 5.59053 33.2229 5.63642C33.2261 5.6823 33.2475 5.72504 33.2824 5.75528C33.5812 5.73814 33.8111 5.72998 34.1698 5.72998C34.4933 5.72998 34.8265 5.73814 35.1418 5.75528C35.2239 5.72998 35.2354 5.56923 35.159 5.51048L34.971 5.48518C34.7576 5.45907 34.6131 5.40358 34.5359 5.27302C34.3964 5.01843 34.3849 4.24324 34.3849 3.60269V1.9503C34.3849 1.50069 34.3849 1.40766 34.4104 1.40766C34.5556 1.53496 34.8372 1.8483 35.3831 2.4758L37.3788 4.73936C37.9928 5.43377 38.2399 5.71856 38.3762 5.90052C38.4304 5.90622 38.4853 5.89838 38.5357 5.87773C38.5862 5.85707 38.6306 5.82424 38.6651 5.7822C38.6388 5.58637 38.6388 4.54434 38.6388 4.28975V2.26364C38.6388 1.59371 38.6389 0.856052 38.7587 0.593302C38.8178 0.457847 38.9631 0.430103 39.1256 0.399095L39.3218 0.355848C39.3371 0.338715 39.3487 0.318765 39.3562 0.29714C39.3637 0.275515 39.3668 0.252639 39.3653 0.229824C39.3639 0.207009 39.3579 0.184702 39.3478 0.164181C39.3376 0.143659 39.3235 0.125327 39.3062 0.110234Z"/>
<path d="M52.3414 5.48518C51.9408 5.43377 51.8637 5.40848 51.8637 4.51007V1.35626C51.8637 0.458663 51.9408 0.449687 52.3414 0.377064L52.4949 0.351768C52.554 0.309336 52.5458 0.140425 52.4777 0.10697C52.1362 0.124106 51.7528 0.132266 51.3777 0.132266C51.0025 0.132266 50.6184 0.124106 50.2284 0.10697C50.1603 0.141241 50.1521 0.310152 50.2112 0.351768L50.3992 0.377064C50.7998 0.428471 50.8769 0.453767 50.8769 1.35626V2.38196C50.8769 2.61941 50.8515 2.63655 50.4164 2.63655H48.4183C47.9832 2.63655 47.9578 2.61941 47.9578 2.38196V1.35626C47.9578 0.458663 48.0341 0.449687 48.4356 0.377064L48.58 0.351768C48.64 0.309336 48.6318 0.140425 48.5628 0.10697C48.2303 0.124106 47.847 0.132266 47.4718 0.132266C47.0967 0.132266 46.6952 0.124106 46.3225 0.10697C46.2544 0.141241 46.2454 0.310152 46.3053 0.351768L46.4933 0.377064C46.8939 0.428471 46.9711 0.453767 46.9711 1.35626V4.51007C46.9711 5.40766 46.8939 5.43377 46.4933 5.48926L46.3734 5.5064C46.3143 5.56597 46.3225 5.71856 46.3907 5.7512C46.7149 5.73406 47.0983 5.7259 47.4743 5.7259C47.8503 5.7259 48.2328 5.73406 48.6761 5.7512C48.7442 5.71774 48.7532 5.56515 48.6933 5.5064L48.4339 5.47621C48.0325 5.42561 47.9561 5.40848 47.9561 4.51007V3.26405C47.9561 3.03475 47.9816 3.01925 48.4167 3.01925H50.4123C50.8474 3.01925 50.8728 3.03557 50.8728 3.26405V4.51007C50.8728 5.40766 50.7957 5.43377 50.3951 5.48518L50.2071 5.51048C50.148 5.57004 50.1562 5.72263 50.2243 5.75527C50.5992 5.73787 50.9823 5.72944 51.3736 5.72998C51.7487 5.72998 52.1321 5.73814 52.5081 5.75527C52.5762 5.72182 52.5844 5.56923 52.5245 5.51048L52.3414 5.48518Z"/>
<path d="M67.3969 0.399095L67.6785 0.355848C67.6975 0.340409 67.7124 0.320481 67.7218 0.297871C67.7312 0.27526 67.7347 0.250683 67.7321 0.226369C67.7295 0.202055 67.7208 0.178774 67.7069 0.158636C67.6929 0.138498 67.6741 0.122141 67.6522 0.11105C67.4133 0.128186 67.1153 0.136346 66.7566 0.136346C66.5694 0.136346 66.2878 0.128186 66.058 0.11105C65.9127 0.670821 65.6402 1.17184 65.3668 1.72998L64.5648 3.36197C64.3694 3.76017 64.2577 3.99763 64.1223 4.24406C64.0107 4.04903 63.789 3.62472 63.7209 3.4811L62.7826 1.52272C62.5609 1.06495 62.3483 0.625126 62.3138 0.11513C61.9978 0.140426 61.6998 0.140426 61.401 0.140426C61.0858 0.140426 60.8551 0.132266 60.5998 0.11513C60.5226 0.140426 60.5177 0.301992 60.5653 0.359928L60.8551 0.411335C61.1884 0.470087 61.3156 0.639814 61.3156 1.03883C61.3156 1.55536 61.2647 2.26282 61.2335 2.83402C61.1917 3.71611 61.1662 4.2669 61.1063 4.80056C61.0464 5.3179 60.9864 5.4452 60.5776 5.49579L60.4323 5.51293C60.3814 5.55536 60.3814 5.71611 60.4578 5.75772C60.7902 5.74059 61.0973 5.73243 61.3706 5.73243C61.6858 5.73243 61.9502 5.74059 62.2654 5.75772C62.3344 5.72427 62.3344 5.5627 62.2744 5.51293L61.9929 5.46152C61.6259 5.39461 61.6177 5.26731 61.6177 4.70754C61.6177 4.01231 61.6349 3.25752 61.6514 2.741C61.6694 2.38441 61.6858 1.72345 61.7031 1.30811H61.7203C61.8221 1.5627 62.0528 2.09636 62.2129 2.4505L62.964 4.08004C63.1602 4.50436 63.5271 5.33504 63.6716 5.79363C63.7062 5.81024 63.7441 5.81887 63.7824 5.81887C63.8208 5.81887 63.8587 5.81024 63.8933 5.79363C64.0468 5.39542 64.4728 4.45377 64.7634 3.86054L65.5006 2.36646C65.6648 2.02782 65.7813 1.77323 66.012 1.30566H66.0284V4.77282C66.0284 5.34891 66.003 5.40848 65.6623 5.46805L65.4316 5.51048C65.3495 5.56107 65.3807 5.72264 65.4489 5.75528C65.824 5.73814 66.1877 5.72998 66.5916 5.72998C66.9331 5.72998 67.2655 5.73814 67.6325 5.75528C67.7261 5.72182 67.7343 5.54312 67.6489 5.51048L67.4026 5.46805C67.1301 5.42562 67.0357 5.37502 67.0102 4.80709C66.9511 3.55209 66.9339 2.2971 66.9339 1.04291C66.9331 0.593302 67.0185 0.457847 67.3969 0.399095Z"/>
<path d="M59.8634 0.381144L60.0506 0.355848C60.1105 0.297096 60.1015 0.144505 60.0333 0.11105C59.6582 0.128186 59.274 0.136346 58.8989 0.136346C58.5065 0.136346 58.1234 0.127914 57.7496 0.11105C57.6814 0.145321 57.6732 0.297912 57.7323 0.355848L57.9203 0.381144C58.3209 0.432551 58.3973 0.457847 58.3973 1.36034V4.51007C58.3973 5.40766 58.3209 5.43377 57.9203 5.48518L57.7323 5.51048C57.6732 5.57005 57.6814 5.72264 57.7496 5.75528C58.1247 5.73814 58.5253 5.72998 58.8989 5.72998C59.2724 5.72998 59.6582 5.73814 60.0333 5.75528C60.1015 5.72182 60.1105 5.56923 60.0506 5.51048L59.8634 5.48518C59.462 5.43377 59.3857 5.40848 59.3857 4.51007V1.35626C59.3857 0.457847 59.462 0.432551 59.8634 0.381144Z"/>
<path d="M57.3391 4.4758C57.0403 5.16286 56.8523 5.40032 55.7695 5.39216C55.0529 5.38318 54.9084 5.32362 54.8058 5.2053C54.6777 5.06087 54.6613 4.7565 54.6613 4.32402V3.24691C54.6613 3.03475 54.6695 3.01843 54.8657 3.01843H55.2762C56.015 3.01843 56.1636 3.03475 56.2235 3.39134L56.2826 3.72998C56.3507 3.78057 56.5133 3.78057 56.556 3.72182C56.5469 3.45009 56.5305 3.15062 56.5305 2.83157C56.5305 2.51252 56.5469 2.21305 56.556 1.98375C56.5133 1.91603 56.3507 1.91603 56.2826 1.97559L56.2235 2.26364C56.1463 2.62839 56.0183 2.63655 55.2762 2.63655H54.8657C54.6695 2.63655 54.6613 2.62839 54.6613 2.40807V0.979267C54.6613 0.496199 54.6613 0.479063 55.0274 0.479063H55.6021C55.8317 0.477365 56.0607 0.50284 56.2842 0.55495C56.5576 0.631653 56.6857 0.834836 56.8219 1.32688C56.8901 1.37747 57.0608 1.36034 57.0945 1.29261C57.0436 0.928675 56.9927 0.258745 56.9582 0.114314C56.8474 0.13145 56.3524 0.13961 55.8089 0.13961H54.1745C53.7994 0.13961 53.3988 0.13145 53.0745 0.114314C53.0064 0.148585 52.9982 0.301176 53.0573 0.359112L53.1935 0.376248C53.595 0.427655 53.6713 0.457847 53.6713 1.35952V4.51007C53.6713 5.40766 53.595 5.43377 53.1935 5.47621L52.8783 5.51048C52.8184 5.57004 52.8274 5.72264 52.8956 5.75528C53.2789 5.73814 53.7985 5.72998 54.1745 5.72998H55.1473C56.1447 5.72998 56.8778 5.73814 57.2537 5.75528C57.3728 5.5268 57.5608 4.88216 57.6117 4.52639C57.5812 4.48514 57.5361 4.45695 57.4854 4.44756C57.4348 4.43816 57.3825 4.44826 57.3391 4.4758Z"/>
</g>
<defs>
<clipPath id="clip0_1910_193871">
<rect width="98" height="24" fill="white"/>
</clipPath>
</defs>
</svg>
