<svg width="62" height="20" viewBox="0 0 62 20" fill="none" xmlns="http://www.w3.org/2000/svg">
<g opacity="0.9">
<path fill-rule="evenodd" clip-rule="evenodd" d="M0 3H59.5543C60.9064 3 62 4.09359 62 5.44235C62 6.79443 60.9031 7.88802 59.5543 7.88802H6.59469V16.143H0V3ZM6.59469 6.22112H52.2372C52.668 6.22112 53.016 5.87316 53.016 5.44567C53.016 5.01486 52.668 4.6669 52.2372 4.6669L6.59469 4.66358V6.22112ZM8.78851 16.1761H12.5962V9.28651H8.78851V16.1761ZM57.4432 16.1761H61.2542V9.28651H57.4432V16.1761ZM24.5395 13.7006C25.3183 13.3494 25.8121 12.564 25.8121 11.656C25.8121 10.4166 24.8378 9.28651 23.1742 9.28651H15.3335V16.1761H19.1445V13.9525H20.3905L21.5405 16.1761H25.8154L24.5395 13.7006ZM21.3184 12.2823H19.1445V10.8242L21.3184 10.8308C21.7194 10.8308 22.0442 11.1556 22.0442 11.5565C22.0442 11.9575 21.7194 12.2823 21.3184 12.2823ZM36.6051 16.1761H28.2043V9.28651H36.6051V10.9468H32.0153V11.9608H36.6051V13.6211H32.0153V14.6352H36.6051V16.1761ZM43.0151 9.28651H39.2041V16.1761H46.8758V14.6352H43.0151V9.28651ZM48.1874 9.28651H51.9951V14.6352H55.8558V16.1761H48.1874V9.28651Z" fill="#63749B"/>
</g>
</svg>
