<svg width="21" height="20" viewBox="0 0 21 20" fill="none" xmlns="http://www.w3.org/2000/svg">
<g opacity="0.9">
<path d="M14.1431 0H5.85824L0 5.85598V14.1395L5.85824 20H14.1431L20.0018 14.1395V5.85598L14.1431 0Z" fill="#63749B"/>
<path d="M16.3163 12.6132L12.6166 16.3134H7.38377L3.68359 12.6132L3.68405 7.38225L7.38377 3.68207H12.6166L16.3163 7.38225V12.6132Z" fill="#EDF1F8"/>
<path fill-rule="evenodd" clip-rule="evenodd" d="M9.77637 7.36865H10.2904V8.1884H9.77637V7.36865ZM4.79102 12.1059H15.2081V11.8613H4.79102V12.1059ZM4.84082 8.03441V7.36865H8.76971V10.086C8.82633 10.634 9.10803 10.8333 9.67823 10.865C10.2484 10.8333 10.5233 10.634 10.5867 10.086V7.36865H12.1425L13.2059 10.5797L14.2833 7.36865H15.185L13.6424 11.4674H12.7484L11.4314 7.93478V10.1132C11.4033 11.1187 10.6782 11.5625 9.67823 11.5625C8.67823 11.5625 7.95314 11.1187 7.91827 10.1132V8.03441H6.87569V11.4674H6.02379V8.03441H4.84082ZM9.07227 7.36865H9.56502V8.1884H9.07227V7.36865ZM7.97322 14.538L7.63672 14.5788C7.68427 15.0589 7.91933 15.2989 8.34098 15.2989C8.57965 15.2989 8.75493 15.2355 8.86724 15.1132C8.97911 14.9864 9.03527 14.837 9.03527 14.6513C9.03527 14.5245 9.01444 14.4203 8.97322 14.3297C8.93246 14.2437 8.87268 14.1712 8.79433 14.1123C8.71643 14.058 8.59007 14.0036 8.4148 13.9538C8.24949 13.904 8.14442 13.8632 8.09913 13.8225C8.05384 13.7817 8.03119 13.7364 8.03119 13.6775C8.03119 13.6232 8.05701 13.5734 8.10773 13.5326C8.15846 13.4964 8.23047 13.4783 8.32467 13.4783C8.41842 13.4783 8.49088 13.5009 8.54161 13.5417C8.59233 13.587 8.6254 13.6685 8.64079 13.7772L8.98907 13.7591C8.98228 13.5553 8.92159 13.3967 8.80746 13.288C8.69333 13.1793 8.53436 13.125 8.33101 13.125C8.1956 13.125 8.08192 13.1476 7.98998 13.1929C7.89759 13.2382 7.82558 13.3107 7.77304 13.4013C7.72096 13.4919 7.69469 13.596 7.69469 13.7138C7.69469 13.8089 7.71507 13.904 7.75583 13.9855C7.79659 14.0761 7.85139 14.144 7.92023 14.1938C7.98953 14.2482 8.09822 14.298 8.24677 14.3433C8.41208 14.3931 8.5167 14.4294 8.55973 14.4475C8.6023 14.4701 8.63445 14.4973 8.65574 14.5335C8.67657 14.5652 8.68699 14.606 8.68699 14.6513C8.68699 14.7328 8.6571 14.7962 8.59686 14.8505C8.53663 14.9049 8.45375 14.9321 8.34868 14.9321C8.13672 14.9321 8.01172 14.8007 7.97322 14.538ZM9.14453 13.1567H9.54489V14.298C9.54489 14.4747 9.54988 14.5879 9.55984 14.6422C9.5775 14.7374 9.62007 14.8053 9.6871 14.8596C9.75413 14.9095 9.8429 14.9321 9.95296 14.9321C10.0458 14.9321 10.1219 14.914 10.1808 14.8778C10.2396 14.846 10.2799 14.7962 10.3017 14.7283C10.323 14.6649 10.3338 14.529 10.3338 14.3207V13.1567H10.7342V14.2618C10.7342 14.5471 10.717 14.7509 10.6821 14.8778C10.6472 15.0046 10.5689 15.1042 10.4466 15.1812C10.3243 15.2582 10.1636 15.2989 9.96337 15.2989C9.75549 15.2989 9.59335 15.2672 9.47696 15.2038C9.36011 15.1359 9.27587 15.0453 9.22333 14.9276C9.1708 14.8143 9.14453 14.597 9.14453 14.2799V13.1567ZM11.6753 13.5326C11.6264 13.5191 11.5326 13.51 11.3931 13.51H11.236V14.9095H11.4964C11.6078 14.9095 11.6889 14.9004 11.7387 14.8778C11.789 14.8596 11.8302 14.8234 11.8619 14.7826C11.894 14.7419 11.9203 14.674 11.9416 14.5788C11.9624 14.4883 11.9728 14.366 11.9728 14.2165C11.9728 14.058 11.962 13.9357 11.9407 13.8451C11.9194 13.7546 11.8859 13.6866 11.8406 13.6323C11.7953 13.5825 11.74 13.5462 11.6753 13.5326ZM11.5412 15.2627H10.8877V13.1567H11.5227C11.6834 13.1567 11.8044 13.1749 11.8859 13.2111C11.9679 13.2473 12.043 13.3062 12.1119 13.3922C12.1807 13.4783 12.2346 13.5915 12.274 13.7274C12.313 13.8633 12.3324 14.0308 12.3324 14.2301C12.3324 14.4158 12.3121 14.5743 12.2708 14.7056C12.2296 14.8415 12.1776 14.9502 12.1146 15.0272C12.0516 15.1042 11.9756 15.1631 11.8859 15.2038C11.7967 15.2446 11.6816 15.2627 11.5412 15.2627ZM9.69238 13.1567H9.88622V13.4828H9.69238V13.1567ZM10.188 13.1567H9.99414V13.4828H10.188V13.1567Z" fill="#63749B"/>
</g>
</svg>
