<svg width="45" height="28" viewBox="0 0 45 28" fill="none" xmlns="http://www.w3.org/2000/svg">
<path d="M0 0.695068V27.2432H44.9994V0.695068H0Z" fill="white"/>
<path d="M7.45312 9.84376L10.0776 19.6934H13.1238L17.8635 8.28613H14.7735L11.7879 16.0311L10.5609 9.97045L7.45312 9.84376Z" fill="#0058A0"/>
<path d="M19.0193 8.24414L17.1992 19.6937H20.0773L21.9389 8.24414H19.0193Z" fill="#0058A0"/>
<path d="M30.4022 10.9801L30.825 8.58241C30.825 8.58241 29.5553 8.07715 28.0325 8.07715C26.5081 8.07715 23.2073 9.04513 23.2073 11.864C23.2073 14.6845 27.3124 14.8108 27.3124 16.3671C27.3124 17.9249 23.6309 17.7568 22.5301 16.7475L22.0645 19.2302C22.0645 19.2302 23.715 19.8621 25.1957 19.8621C26.6771 19.8621 30.3609 19.5256 30.3609 15.8641C30.3609 12.6639 26.2551 13.2958 26.2551 11.36C26.255 11.3599 26.677 9.42381 30.4022 10.9801Z" fill="#0058A0"/>
<path d="M30.1914 19.6942H33.3655L33.9165 18.0526H37.8092L38.1335 19.6798H40.8849L38.3603 8.37256H35.8207C35.8207 8.37256 34.8897 8.47781 34.4669 9.59299C34.0647 10.6532 30.1914 19.6942 30.1914 19.6942Z" fill="#0058A0"/>
<path d="M37.3439 15.6949H34.7617L36.3708 11.4858L37.3439 15.6949Z" fill="white"/>
<path d="M11.4672 14.4459L10.5617 9.97084C10.5617 9.97084 10.439 8.29004 9.23482 8.29004H4.31836V8.52351C4.31848 8.52351 9.18356 9.32553 11.4672 14.4459Z" fill="#0058A0"/>
<path d="M44.9994 21.3652H0V28.0001H44.9994V21.3652Z" fill="#FAA61A"/>
<path d="M44.9994 0H0V6.63438H44.9994V0Z" fill="#0058A0"/>
</svg>
