<svg width="45" height="28" viewBox="0 0 45 28" fill="none" xmlns="http://www.w3.org/2000/svg">
<path d="M0.732422 0.685547V27.1804H44.7923V0.685547H0.732422Z" fill="white"/>
<path d="M45 23.2498H0V28.0001H45V23.2498Z" fill="#FAA61A"/>
<path d="M45 0H0V4.67415H45V0Z" fill="#0058A0"/>
<path d="M18.2785 6.8798L13.9043 17.2576H11.0506L8.89816 8.97527C8.7677 8.46634 8.65411 8.27907 8.25714 8.06385C7.60768 7.71307 6.53596 7.38512 5.59375 7.18108L5.65723 6.87968H10.2516C10.8363 6.87968 11.3627 7.26703 11.4964 7.93737L12.634 13.9431L15.4419 6.87968H18.2785V6.8798ZM22.1365 6.8798L19.904 17.2576H17.2043L19.4366 6.8798H22.1365ZM29.4596 13.8695C29.4708 11.1308 25.6521 10.979 25.6774 9.75556C25.6863 9.38347 26.0425 8.98739 26.8224 8.88618C27.2087 8.83645 28.276 8.79697 29.4848 9.35098L29.9578 7.14905C29.3082 6.9152 28.4723 6.69043 27.4327 6.69043C24.7638 6.69043 22.8865 8.1003 22.8718 10.1205C22.854 11.6147 24.2125 12.4478 25.2343 12.9454C26.2865 13.4538 26.6395 13.7803 26.6345 14.2348C26.6269 14.9311 25.7942 15.2395 25.0195 15.2508C23.6621 15.2723 22.8748 14.8858 22.2469 14.595L21.7572 16.8698C22.3885 17.1579 23.5529 17.4081 24.7582 17.4205C27.5956 17.4205 29.4512 16.0267 29.4596 13.8695ZM36.507 17.2576H39.0031L36.8225 6.8798H34.5193C33.9997 6.8798 33.5634 7.17968 33.3698 7.64075L29.3189 17.2576H32.1538L32.716 15.7075H36.1802L36.507 17.2576ZM33.4935 13.5811L34.915 9.6837L35.7316 13.5811H33.4935ZM25.5914 20.1144H24.4945V21.1295H25.7215V21.4349H24.1248V18.618H25.6587V18.9232H24.4946V19.8131H25.5915V20.1144H25.5914ZM26.2881 18.4676H26.6581V21.4346H26.2881V18.4676ZM27.5906 20.4903C27.5985 20.9877 27.914 21.1922 28.2879 21.1922C28.5528 21.1922 28.7166 21.1465 28.8514 21.088L28.9185 21.3513C28.788 21.4097 28.5612 21.4807 28.2373 21.4807C27.6116 21.4807 27.2377 21.0669 27.2377 20.4569C27.2377 19.8467 27.5986 19.3703 28.1914 19.3703C28.8595 19.3703 29.0319 19.9473 29.0319 20.319C29.0319 20.394 29.028 20.4483 29.0193 20.4902H27.5906V20.4903ZM28.6745 20.2269C28.6787 19.9974 28.5781 19.6336 28.1619 19.6336C27.7838 19.6336 27.624 19.9721 27.5944 20.2269H28.6745ZM31.0439 21.3636C30.9474 21.4098 30.7329 21.4808 30.4598 21.4808C29.8465 21.4808 29.4473 21.067 29.4473 20.4485C29.4473 19.8258 29.8756 19.3704 30.5395 19.3704C30.7583 19.3704 30.9512 19.4246 31.0522 19.4793L30.9684 19.7591C30.8796 19.713 30.7411 19.6626 30.5395 19.6626C30.0732 19.6626 29.8214 20.0096 29.8214 20.4279C29.8214 20.8957 30.1237 21.184 30.527 21.184C30.737 21.184 30.8755 21.1342 30.9807 21.0881L31.0439 21.3636ZM32.0811 18.9273V19.4124H32.6104V19.6918H32.0811V20.7825C32.0811 21.0335 32.1524 21.1756 32.3583 21.1756C32.459 21.1756 32.5182 21.1673 32.5727 21.1504L32.5893 21.4304C32.5184 21.4556 32.4046 21.4807 32.2618 21.4807C32.0894 21.4807 31.9509 21.4221 31.8626 21.3262C31.7619 21.2131 31.7198 21.0335 31.7198 20.7952V19.6916H31.4045V19.4123H31.7198V19.0359L32.0811 18.9273ZM33.1269 20.0434C33.1269 19.8051 33.1224 19.6003 33.1098 19.4124H33.4336L33.4506 19.813H33.4629C33.5554 19.5416 33.7824 19.3703 34.03 19.3703C34.0679 19.3703 34.0975 19.3744 34.1312 19.3785V19.7254C34.0933 19.7173 34.0556 19.7173 34.0047 19.7173C33.7445 19.7173 33.5593 19.9092 33.5094 20.1853C33.501 20.2356 33.4965 20.2979 33.4965 20.357V21.4351H33.1271V20.0434H33.1269ZM36.4039 20.4066C36.4039 21.1549 35.8785 21.4808 35.3912 21.4808C34.8449 21.4808 34.4165 21.0795 34.4165 20.4403C34.4165 19.7675 34.8658 19.3703 35.4247 19.3703C36.0091 19.3703 36.4039 19.7924 36.4039 20.4066ZM34.7944 20.4276C34.7944 20.8708 35.0467 21.2053 35.408 21.2053C35.7609 21.2053 36.0253 20.8748 36.0253 20.4193C36.0253 20.0765 35.8532 19.646 35.4163 19.646C34.9835 19.646 34.7944 20.0473 34.7944 20.4276ZM36.9704 19.9594C36.9704 19.7464 36.9663 19.5795 36.9535 19.4124H37.2814L37.3027 19.7464H37.3107C37.4115 19.5583 37.647 19.3703 37.9832 19.3703C38.2642 19.3703 38.7016 19.5376 38.7016 20.2311V21.4346H38.3323V20.2688C38.3323 19.9428 38.2104 19.6711 37.8613 19.6711C37.6219 19.6711 37.4327 19.8426 37.3659 20.0472C37.3486 20.0933 37.3402 20.1559 37.3402 20.2185V21.4345H36.9705V19.9594H36.9704Z" fill="#0058A0"/>
</svg>
