<svg width="48" height="48" viewBox="0 0 48 48" fill="none" xmlns="http://www.w3.org/2000/svg">
<path d="M34 7L35.6734 10.4252C35.8966 10.8821 36.2854 11.2368 36.7609 11.4172L39.7956 12.5687C40.6833 12.9055 41.2119 13.8201 41.0605 14.7574L40.5641 17.8318C40.4729 18.3966 40.628 18.9734 40.9901 19.4164L42.9652 21.8324C43.5673 22.5689 43.5673 23.6275 42.9652 24.364L40.9901 26.78C40.628 27.223 40.4729 27.7998 40.5641 28.3647L41.0605 31.439C41.2119 32.3763 40.6833 33.2909 39.7956 33.6277L36.8584 34.7422C36.3255 34.9444 35.9042 35.3643 35.7003 35.8965L34.5807 38.8182C34.2423 39.7014 33.3314 40.2268 32.3974 40.0774L29.2807 39.5791C28.7201 39.4895 28.1479 39.6423 27.7066 39.9995L25.2584 41.9814C24.5246 42.5753 23.4754 42.5753 22.7416 41.9814L20.2934 39.9995C19.8521 39.6423 19.2799 39.4895 18.7193 39.5791L15.6026 40.0774C14.6686 40.2268 13.7577 39.7014 13.4193 38.8182L12.2997 35.8965C12.0958 35.3643 11.6745 34.9444 11.1416 34.7422L8.20439 33.6277C7.31667 33.2909 6.78812 32.3763 6.93947 31.439L7.43586 28.3647C7.52706 27.7998 7.37199 27.223 7.00987 26.78L5.03482 24.364C4.43273 23.6275 4.43273 22.5689 5.03482 21.8324L7.00987 19.4164C7.37199 18.9734 7.52706 18.3966 7.43586 17.8318L6.93947 14.7574C6.78812 13.8201 7.31667 12.9055 8.20438 12.5687L11.2391 11.4172C11.7146 11.2368 12.1034 10.8821 12.3266 10.4252L14 7" stroke="#67B92E" stroke-width="3" stroke-linecap="round" stroke-linejoin="round"/>
<path d="M27.0454 22.6038L17.9862 29.5816C16.7071 30.5312 16.6652 32.458 17.9017 33.4644C18.8575 34.2422 20.2353 34.1648 21.1011 33.2846L29.6038 24.881M34.665 23.9154C32.885 25.7261 29.9991 25.7261 28.2192 23.9154C26.4392 22.1046 26.4392 19.1688 28.2192 17.358C29.4846 16.0707 31.309 15.6986 32.8976 16.2417L29.9718 19.218C29.5972 19.5991 29.5972 20.2171 29.9718 20.5982L31.4799 22.1324C31.8546 22.5135 32.462 22.5135 32.8367 22.1324L35.7624 19.156C36.2963 20.7721 35.9305 22.6281 34.665 23.9154Z" stroke="#3E47DD" stroke-width="1.5" stroke-linecap="round" stroke-linejoin="round"/>
<path d="M26 31.1529L28.0466 33.2761C28.8812 34.1668 30.2094 34.2451 31.1308 33.458C32.3228 32.4398 32.2823 30.4901 31.0493 29.5292L29.1579 28" stroke="#3E47DD" stroke-width="1.5" stroke-linecap="round" stroke-linejoin="round"/>
<path d="M20.4935 25.5471L19.1046 23.9734L20.2031 22.9357M22.8888 23.361L21.3015 21.898L20.2031 22.9357M20.2031 22.9357L15.218 18.2542M15.218 18.2542L15.1705 17.2719L13.8133 16.3531L13.1902 17.0396L14.2357 18.3017L15.218 18.2542Z" stroke="#3E47DD" stroke-width="1.5" stroke-linecap="round" stroke-linejoin="round"/>
<path d="M47.6207 36.7304C47.7935 36.3976 47.552 36 47.177 36H41C40.4477 36 40 36.4477 40 37V45C40 45.5523 40.4477 46 41 46H47.177C47.552 46 47.7935 45.6024 47.6207 45.2696L45.6428 41.4609C45.4928 41.1719 45.4928 40.8281 45.6428 40.5391L47.6207 36.7304Z" fill="#262A98"/>
<path d="M0.379311 36.7304C0.206467 36.3976 0.448002 36 0.823047 36H7C7.55228 36 8 36.4477 8 37V45C8 45.5523 7.55228 46 7 46H0.823048C0.448003 46 0.206467 45.6024 0.379312 45.2696L2.35717 41.4609C2.5072 41.1719 2.5072 40.8281 2.35717 40.5391L0.379311 36.7304Z" fill="#262A98"/>
<rect x="5" y="38" width="38" height="10" rx="1" fill="#3E47DD"/>
<path d="M31 2.28571L24 0V16C26.1667 14.781 31 11.7857 31 9.5V2.28571Z" fill="#378517"/>
<path d="M17 2.28571L24 0V16C21.8333 14.781 17 11.7857 17 9.5V2.28571Z" fill="#67B92E"/>
<path d="M21 7.5L23 9.5L27 5.5" stroke="white" stroke-width="1.5" stroke-linecap="round" stroke-linejoin="round"/>
</svg>
